<?xml version="1.0" encoding="UTF-8" standalone="no"?>
<!-- Created with Inkscape (http://www.inkscape.org/) -->
<svg
   xmlns:svg="http://www.w3.org/2000/svg"
   xmlns="http://www.w3.org/2000/svg"
   version="1.0"
   width="1200"
   height="960"
   id="svg14394">
  <defs
     id="defs14396" />
  <g
     transform="translate(54.39286,727.9125)"
     id="layer1">
    <path
       d="M -54.392857,207.67188 C -54.392857,214.1985 -51.856612,220.31933 -47.266219,224.92967 C -42.675826,229.54001 -36.565783,232.08754 -30.067966,232.08754 L 1121.2823,232.08754 C 1134.6971,232.08754 1145.6071,221.13093 1145.6071,207.67188 L 1145.6071,-703.50807 C 1145.6071,-710.03469 1143.0709,-716.15552 1138.4805,-720.76586 C 1133.8901,-725.37621 1127.7801,-727.91246 1121.2823,-727.91246 L -30.067966,-727.91246 C -36.565783,-727.91246 -42.675826,-725.37621 -47.266219,-720.76586 C -51.856612,-716.15552 -54.392857,-710.03469 -54.392857,-703.50807 L -54.392857,207.67188 z "
       style="fill:black;fill-rule:nonzero;stroke:none"
       id="path14418" />
    <path
       d="M -46.364909,-703.50807 C -46.364909,-712.52586 -39.060106,-719.86408 -30.067966,-719.86408 L 1121.2823,-719.86408 C 1125.6421,-719.86408 1129.7294,-718.16198 1132.8106,-715.07338 C 1135.8814,-711.98479 1137.5792,-707.8817 1137.5792,-703.50807 L 1137.5792,207.67188 C 1137.5792,212.0455 1135.8814,216.1486 1132.8106,219.23719 C 1129.7294,222.32578 1125.6421,224.02789 1121.2823,224.02789 L -30.067966,224.02789 C -34.427791,224.02789 -38.515128,222.32578 -41.59635,219.23719 C -44.667093,216.1486 -46.364909,212.0455 -46.364909,207.67188 L -46.364909,-703.50807"
       style="fill:white;fill-rule:nonzero;stroke:none"
       id="path11011" />
    <path
       d="M -16.705521,-690.2181 L 1108.2866,-690.2181 L 1108.2866,194.5059 L -16.705521,194.5059 L -16.705521,-690.2181 z "
       style="fill:#176fc1;fill-rule:nonzero;stroke:none"
       id="path11013" />
    <path
       d="M 201.64208,-373.98679 C 228.95387,-373.98679 251.08837,-397.73739 251.08837,-427.0452 C 251.08837,-456.34174 228.95387,-480.09235 201.64208,-480.09235 C 174.33029,-480.09235 152.19579,-456.34174 152.19579,-427.0452 C 152.19579,-397.73739 174.33029,-373.98679 201.64208,-373.98679"
       style="fill:white;fill-rule:nonzero;stroke:none"
       id="path11015" />
    <path
       d="M 129.76784,-171.9545 L 129.76784,-125.99759 L 45.170462,6.2370145 C 45.170462,6.2370145 36.42985,17.486706 42.550374,26.865207 C 48.670898,36.243707 68.772209,70.004055 68.772209,70.004055 C 68.772209,70.004055 75.773082,76.564496 81.883126,70.004055 C 88.00365,63.443614 82.763475,57.818768 82.763475,57.818768 L 77.51282,44.686612 L 174.53989,-104.79451 L 174.53989,44.686612 C 174.53989,60.625554 181.54077,62.496746 181.54077,62.496746 L 224.37396,93.450306 L 235.73465,80.318151 L 219.1233,59.689959 L 219.1233,-171.9545 L 129.76784,-171.9545"
       style="fill:white;fill-rule:nonzero;stroke:none"
       id="path11017" />
    <path
       d="M 219.1233,-180.3974 L 219.1233,-224.35912 L 261.87265,-197.27194 C 261.87265,-197.27194 286.4281,-188.82903 296.91893,-201.02559 C 307.40976,-213.22215 310.02985,-216.96454 310.02985,-216.96454 C 310.02985,-216.96454 315.02898,-223.78424 306.44557,-229.33018 C 299.9792,-233.52345 245.53378,-267.9714 219.1233,-284.67686 L 219.1233,-330.44214 C 219.1233,-357.64204 197.27177,-364.20249 197.27177,-364.20249 L 171.91981,-372.64539 C 161.42898,-376.39904 155.30845,-367.02054 155.30845,-367.02054 C 155.30845,-367.02054 60.031597,-230.09669 46.92068,-211.33969 C 33.809763,-192.58269 43.430724,-172.89009 43.430724,-172.89009 L 58.281379,-148.50824 L 129.76784,-248.89878 L 129.76784,-180.3974 L 219.1233,-180.3974"
       style="fill:white;fill-rule:nonzero;stroke:none"
       id="path11019" />
    <path
       d="M 421.91806,81.659547 C 442.39666,81.659547 459.00802,63.849414 459.00802,41.868553 C 459.00802,19.898965 442.39666,2.0775594 421.91806,2.0775594 C 401.43946,2.0775594 384.83858,19.898965 384.83858,41.868553 C 384.83858,63.849414 401.43946,81.659547 421.91806,81.659547"
       style="fill:white;fill-rule:nonzero;stroke:none"
       id="path11021" />
    <path
       d="M 629.95299,-138.56613 C 649.07963,-138.56613 664.56959,-155.19268 664.56959,-175.70815 C 664.56959,-196.21235 649.07963,-212.8389 629.95299,-212.8389 C 610.84732,-212.8389 595.34688,-196.21235 595.34688,-175.70815 C 595.34688,-155.19268 610.84732,-138.56613 629.95299,-138.56613"
       style="fill:white;fill-rule:nonzero;stroke:none"
       id="path11023" />
    <path
       d="M 548.5102,-65.972931 L 599.89535,-124.44202 C 599.89535,-124.44202 605.92155,-133.96706 617.06216,-133.96706 L 652.46478,-133.96706 C 652.46478,-133.96706 659.69623,-133.27945 666.28837,-125.76087 L 715.58793,-67.348144 L 704.05954,-39.686076 L 662.77745,-88.596309 L 661.64557,-53.088765 L 678.03684,-10.175361 L 719.98968,-8.7776041 L 729.17046,23.584986 L 667.54601,20.766927 L 635.40278,-11.584391 L 629.82723,85.480835 L 597.62112,87.825461 L 607.82898,-90.0617 L 566.87177,-43.462275 L 548.5102,-65.972931"
       style="fill:white;fill-rule:nonzero;stroke:none"
       id="path11025" />
    <path
       d="M 1029.4325,71.875246 L 1029.4325,3.4189555 L 867.72068,-142.8834 C 867.72068,-142.8834 842.36872,-162.576 788.17483,-235.72154 C 733.98094,-308.87835 738.35125,-389.5312 738.35125,-389.5312 L 713.86915,-389.5312 C 713.86915,-389.5312 714.89623,-278.98438 756.70234,-216.02894 C 806.52592,-141.00094 847.60889,-103.49821 847.60889,-103.49821 L 1029.4325,71.875246"
       style="fill:white;fill-rule:nonzero;stroke:none"
       id="path11027" />
    <path
       d="M 935.38182,-577.59719 L 931.00103,-580.74214 L 908.27963,-564.41995 L 908.27963,-581.77919 L 889.91806,-581.77919 L 889.91806,-551.23143 L 807.75212,-492.19873 L 816.50321,-478.17607 L 839.22461,-494.49826 L 839.22461,-262.92144 L 1023.6578,-262.92144 L 1023.6578,-493.86702 L 1045.5093,-478.17607 L 1054.2604,-492.19873 L 935.38182,-577.59719 z M 1013.167,-274.17113 L 849.71544,-274.17113 L 849.71544,-502.02812 L 931.00103,-560.42957 L 1013.167,-501.40814 L 1013.167,-274.17113"
       style="fill:white;fill-rule:nonzero;stroke:none"
       id="path11029" />
    <path
       d="M 864.60802,-414.84864 L 916.18182,-414.84864 L 916.18182,-486.12299 L 864.60802,-486.12299 L 864.60802,-414.84864 z "
       style="fill:white;fill-rule:nonzero;stroke:none"
       id="path11031" />
    <path
       d="M 940.65343,-414.84864 L 992.22723,-414.84864 L 992.22723,-486.12299 L 940.65343,-486.12299 L 940.65343,-414.84864 z "
       style="fill:white;fill-rule:nonzero;stroke:none"
       id="path11033" />
    <path
       d="M 898.31282,-267.20489 L 957.75736,-267.20489 L 957.75736,-378.8113 L 898.31282,-378.8113 L 898.31282,-267.20489 z "
       style="fill:white;fill-rule:nonzero;stroke:none"
       id="path11035" />
    <path
       d="M 487.91282,-429.38983 C 466.4805,-429.38983 420.76522,-439.19667 414.81238,-440.49298 L 414.81238,-393.56666 C 414.81238,-390.03845 412.15037,-387.18657 408.87003,-387.18657 L 377.49186,-387.18657 C 374.21151,-387.18657 371.5495,-390.03845 371.5495,-393.56666 L 371.5495,-439.01632 C 364.25518,-443.15323 360.90147,-448.1581 357.12854,-460.33212 C 348.66042,-487.59966 357.12854,-510.26812 361.05867,-518.01215 C 363.57396,-522.97193 376.85256,-526.77068 386.07527,-528.85604 L 423.56347,-599.60059 L 553.57221,-599.60059 L 591.0709,-528.85604 C 600.2936,-526.77068 613.56173,-522.97193 616.07701,-518.01215 C 620.01762,-510.26812 628.48575,-487.59966 620.01762,-460.33212 C 616.23422,-448.1581 612.89098,-443.15323 605.59666,-439.01632 L 605.59666,-393.56666 C 605.59666,-390.03845 602.93465,-387.18657 599.64382,-387.18657 L 568.26566,-387.18657 C 564.98531,-387.18657 562.3233,-390.03845 562.3233,-393.56666 L 562.3233,-440.49298 C 556.38094,-439.19667 510.65518,-429.38983 489.22286,-429.38983 L 487.91282,-429.38983 z M 578.02286,-530.70469 L 547.47264,-588.3509 L 429.67352,-588.3509 L 399.11282,-530.70469 L 578.02286,-530.70469 z M 387.28051,-470.80402 C 398.54688,-470.80402 407.67527,-480.5996 407.67527,-492.69471 C 407.67527,-504.77854 398.54688,-514.57412 387.28051,-514.57412 C 376.01413,-514.57412 366.88575,-504.77854 366.88575,-492.69471 C 366.88575,-480.5996 376.01413,-470.80402 387.28051,-470.80402 z M 610.26042,-492.69471 C 610.26042,-504.77854 601.12155,-514.57412 589.85518,-514.57412 C 578.5888,-514.57412 569.46042,-504.77854 569.46042,-492.69471 C 569.46042,-480.5996 578.5888,-470.80402 589.85518,-470.80402 C 601.12155,-470.80402 610.26042,-480.5996 610.26042,-492.69471"
       style="fill:white;fill-rule:nonzero;stroke:none"
       id="path11037" />
  </g>
</svg>
