<?xml version="1.0" encoding="UTF-8" standalone="no"?>
<!-- Created with Inkscape (http://www.inkscape.org/) -->

<svg
   xmlns:dc="http://purl.org/dc/elements/1.1/"
   xmlns:cc="http://creativecommons.org/ns#"
   xmlns:rdf="http://www.w3.org/1999/02/22-rdf-syntax-ns#"
   xmlns:svg="http://www.w3.org/2000/svg"
   xmlns="http://www.w3.org/2000/svg"
   xmlns:sodipodi="http://sodipodi.sourceforge.net/DTD/sodipodi-0.dtd"
   xmlns:inkscape="http://www.inkscape.org/namespaces/inkscape"
   width="684.55157"
   height="342.42493"
   id="svg4764"
   version="1.1"
   inkscape:version="0.47 r22583"
   sodipodi:docname="Traffic Sign GR - KOK 2009 - P-92.svg">
  <defs
     id="defs4766">
    <inkscape:perspective
       sodipodi:type="inkscape:persp3d"
       inkscape:vp_x="0 : 526.18109 : 1"
       inkscape:vp_y="0 : 1000 : 0"
       inkscape:vp_z="744.09448 : 526.18109 : 1"
       inkscape:persp3d-origin="372.04724 : 350.78739 : 1"
       id="perspective4772" />
    <inkscape:perspective
       id="perspective4743"
       inkscape:persp3d-origin="0.5 : 0.33333333 : 1"
       inkscape:vp_z="1 : 0.5 : 1"
       inkscape:vp_y="0 : 1000 : 0"
       inkscape:vp_x="0 : 0.5 : 1"
       sodipodi:type="inkscape:persp3d" />
    <inkscape:perspective
       id="perspective5239"
       inkscape:persp3d-origin="0.5 : 0.33333333 : 1"
       inkscape:vp_z="1 : 0.5 : 1"
       inkscape:vp_y="0 : 1000 : 0"
       inkscape:vp_x="0 : 0.5 : 1"
       sodipodi:type="inkscape:persp3d" />
    <inkscape:perspective
       id="perspective5543"
       inkscape:persp3d-origin="0.5 : 0.33333333 : 1"
       inkscape:vp_z="1 : 0.5 : 1"
       inkscape:vp_y="0 : 1000 : 0"
       inkscape:vp_x="0 : 0.5 : 1"
       sodipodi:type="inkscape:persp3d" />
    <inkscape:perspective
       id="perspective5737"
       inkscape:persp3d-origin="0.5 : 0.33333333 : 1"
       inkscape:vp_z="1 : 0.5 : 1"
       inkscape:vp_y="0 : 1000 : 0"
       inkscape:vp_x="0 : 0.5 : 1"
       sodipodi:type="inkscape:persp3d" />
    <clipPath
       clipPathUnits="userSpaceOnUse"
       id="clipPath2880">
      <path
         d="m 179.69,552.76 226.77,0 0,-226.78 -226.77,0 0,226.78 z"
         clip-rule="evenodd"
         id="path2882" />
    </clipPath>
    <inkscape:perspective
       id="perspective6014"
       inkscape:persp3d-origin="0.5 : 0.33333333 : 1"
       inkscape:vp_z="1 : 0.5 : 1"
       inkscape:vp_y="0 : 1000 : 0"
       inkscape:vp_x="0 : 0.5 : 1"
       sodipodi:type="inkscape:persp3d" />
    <inkscape:perspective
       id="perspective7377"
       inkscape:persp3d-origin="0.5 : 0.33333333 : 1"
       inkscape:vp_z="1 : 0.5 : 1"
       inkscape:vp_y="0 : 1000 : 0"
       inkscape:vp_x="0 : 0.5 : 1"
       sodipodi:type="inkscape:persp3d" />
  </defs>
  <sodipodi:namedview
     id="base"
     pagecolor="#ffffff"
     bordercolor="#666666"
     borderopacity="1.0"
     inkscape:pageopacity="0.0"
     inkscape:pageshadow="2"
     inkscape:zoom="0.99687462"
     inkscape:cx="712.87228"
     inkscape:cy="259.31085"
     inkscape:document-units="px"
     inkscape:current-layer="layer1"
     showgrid="false"
     inkscape:window-width="1600"
     inkscape:window-height="838"
     inkscape:window-x="-8"
     inkscape:window-y="-8"
     inkscape:window-maximized="1" />
  <metadata
     id="metadata4769">
    <rdf:RDF>
      <cc:Work
         rdf:about="">
        <dc:format>image/svg+xml</dc:format>
        <dc:type
           rdf:resource="http://purl.org/dc/dcmitype/StillImage" />
        <dc:title />
      </cc:Work>
    </rdf:RDF>
  </metadata>
  <g
     inkscape:label="Livello 1"
     inkscape:groupmode="layer"
     id="layer1"
     transform="translate(234.4815,346.29495)">
    <path
       d="m -221.49066,-333.30573 658.59235,0 0,316.446553 -658.59235,0"
       style="fill:#0071bc;fill-opacity:1;fill-rule:evenodd;stroke:none"
       id="path6789" />
    <path
       d="m 450.06985,-346.14531 -0.15065,-0.14931 -684.24959,0 0,0.29995 684.24959,0 0.15065,-0.15064 0,0 0,-0.14931 -0.15065,0"
       style="fill:#1f1917;fill-opacity:1;fill-rule:nonzero;stroke:none"
       id="path6791" />
    <path
       d="m 449.9194,-3.8700238 0.15066,-0.1493034 0,-342.1256528 -0.29995,0 0,342.1256528 0.14929,0.1493034 0,0 0.15066,0 0,-0.1493034"
       style="fill:#1f1917;fill-opacity:1;fill-rule:nonzero;stroke:none"
       id="path6793" />
    <path
       d="m -234.4807,-4.0196629 0.15066,0.1493024 684.24959,0 0,-0.2999506 -684.24959,0 -0.15066,0.1506482 0,0 0,0.1493024 0.15066,0"
       style="fill:#1f1917;fill-opacity:1;fill-rule:nonzero;stroke:none"
       id="path6795" />
    <path
       d="m -234.33018,-346.29495 -0.15065,0.14929 0,342.1256604 0.29995,0 0,-342.1256604 -0.14998,-0.14929 0,0 -0.15064,0 0,0.14929"
       style="fill:#1f1917;fill-opacity:1;fill-rule:nonzero;stroke:none"
       id="path6797" />
    <path
       d="m -7.4780519,-239.80148 c 4.2151168,0 8.4285498,0 12.6436777,0 1.3248857,3.6485 1.3248857,7.32063 0,10.99347 -4.2151279,-0.0269 -8.4285609,0 -12.6436777,0 -1.2391499,-3.67284 -1.4560374,-7.34497 0,-10.99347 z m 84.2266909,0 c 4.215997,0 8.431047,0 12.644547,0 1.345882,3.6485 1.324897,7.32063 0,10.99347 -4.2135,-0.0269 -8.42855,0 -12.644547,0 -1.236653,-3.67284 -1.456038,-7.34497 0,-10.99347 z m -78.7530559,-31.30479 c 3.0432264,0 5.4971067,2.47575 5.4971067,5.49462 0,3.01969 -2.4538803,5.49798 -5.4971067,5.49798 -3.0196878,0 -5.473635,-2.45475 -5.473635,-5.49798 0,-3.01887 2.4538803,-5.49462 5.473635,-5.49462 z m 83.5760169,0 c 3.019688,0 5.49791,2.47575 5.49791,5.49462 0,3.01969 -2.478222,5.49798 -5.49791,5.49798 -3.018885,0 -5.494687,-2.45475 -5.494687,-5.49798 0,-3.01887 2.475802,-5.49462 5.494687,-5.49462 z m -99.978356,-11.16753 c 0.89111,0 1.782221,-1.02218 2.673332,-1.02218 2.302558,-10.79675 4.604379,-20.55101 6.9086203,-31.34776 0.4546375,0 0.8911108,0 1.3467518,0 0.067237,0 0.109609,0 0.1519918,0 0.4546375,0 0.9129657,0 1.367737,0 0.040365,0 0.110278,0 0.153341,0 0.4546374,0 0.8911777,0 1.345949,0 0.067237,0 0.1096089,0 0.1741812,0 0.4337861,0 0.8911108,0 1.3467518,0 0.040365,0 0.1089399,0 0.1519918,0 0.4573247,0 0.9129657,0 1.3467518,0 0.067237,0 0.1089399,0 0.1741924,0 0.45732467,0 0.89111077,0 1.34843547,0 0.06723724,0 0.10693285,0 0.15064263,0 0.4573247,0 0.912096,0 1.3484355,0 0.067237,0 0.1069328,0 0.1741924,0 0.4546263,0 0.8885462,0 1.3458709,0 0.067237,0 0.1076019,0 0.1741924,0 0.4337861,0 0.8919805,0 1.3467517,0 0.040365,0 0.109609,0 0.1519919,0 0.4553065,0 0.9129657,0 1.3467518,0 0.067237,0 0.1096089,0 0.1741923,0 0.4546263,0 0.8910997,0 1.3459378,0 0.040365,0 0.110278,0 0.1533411,0 0.4546374,0 0.9129657,0 1.345882,0 0.067237,0 0.110278,0 0.1741813,0 0.4579937,0 0.8919809,0 1.3467519,0 0.06724,0 0.10894,0 0.151992,0 0.458005,0 0.912965,0 1.346751,0 0.06724,0 0.131152,0 0.174193,0 0.457325,0 0.891111,0 1.348435,0 0.06724,0 0.107602,0 0.174182,0 0.433786,0 0.889427,0 1.346751,0 0.04036,0 0.106933,0 0.151992,0 0.455318,0 0.910479,0 1.346763,0 0.06724,0 0.106933,0 0.174181,0 0.454638,0 0.891111,0 1.345949,0 0.04036,0 0.110278,0 0.153341,0 0.454626,0 0.912085,0 1.345871,0 0.06724,0 0.110278,0 0.174192,0 0.455976,0 0.891111,0 1.346752,0 0.06724,0 0.10894,0 0.174181,0 0.433787,0 0.891111,0 1.345949,0 0.04037,0 0.110278,0 0.153341,0 0.457325,0 0.891111,0 1.345871,0 0.06724,0 0.110278,0 0.174193,0 0.436473,0 0.89111,0 1.349305,0 0.04037,0 0.106933,0 0.149973,0 0.457325,0 0.912977,0 1.34925,0 0.06724,0 0.106933,0 0.174181,0 0.454638,0 0.888624,0 1.345949,0 0.06724,0 0.107602,0 0.153341,0 0.454627,0 0.912085,0 1.345871,0 0.06724,0 0.107602,0 0.174193,0 0.454626,0 0.89111,0 1.346751,0 0.06724,0 0.109609,0 0.174182,0 0.433117,0 0.89111,0 1.345948,0 0.04037,0 0.10894,0 0.153342,0 0.454626,0 0.912095,0 1.34587,0 0.06724,0 0.10894,0 0.174193,0 0.433786,0 0.891111,0 1.346752,0 0.04036,0 0.10894,0 0.151991,0 0.457325,0 0.912966,0 1.346752,0 0.06724,0 0.10894,0 0.174193,0 0.457325,0 0.891111,0 1.348435,0 0.06724,0 0.106933,0 0.174182,0 0.433786,0 0.888624,0 1.345948,0 0.04037,0 0.107602,0 0.152661,0 0.454638,0 0.888558,0 1.345882,0 0.06724,0 0.107602,0 0.174182,0 0.433786,0 0.89111,0 1.346763,0 0.04036,0 0.109609,0 0.151991,0 0.455976,0 0.912966,0 1.346752,0 0.06724,0 0.109609,0 0.174181,0 0.454638,0 0.891111,0 1.345949,0 0.04037,0 0.110278,0 0.153341,0 0.454627,0 0.912085,0 1.345871,0 0.06724,0 0.131152,0 0.174193,0 0.457993,0 0.89111,0 1.346751,0 0.06724,0 0.10894,0 0.174182,0 0.436484,0 0.89111,0 1.348435,0 0.04037,0 0.107602,0 0.150654,0 0.457325,0 0.891111,0 1.348435,0 0.06724,0 0.107602,0 0.174182,0 0.433786,0 0.888624,0 1.346751,0 0.04037,0 0.106933,0 0.151992,0 0.455307,0 0.912977,0 1.346752,0 0.06724,0 0.106933,0 0.174192,0 0.454638,0 0.891111,0 1.345949,0 0.06724,0 0.110278,0 0.174182,0 0.433786,0 0.89111,0 1.346751,0 0.04037,0 0.10894,0 0.151992,0 0.455987,0 0.891111,0 1.346752,0 0.06724,0 0.10894,0 0.174192,0 0.433787,0 0.891111,0 1.345882,0 0.04037,0 0.110278,0 0.15333,0 0.457325,0 0.912163,0 1.345949,0 0.06724,0 0.110278,0 0.174193,0 0.457324,0 0.891099,0 1.349238,0 0.04036,0 0.106933,0 0.149974,0 0.457324,0 0.912965,0 1.349305,0 0.06724,0 0.106933,0 0.173512,0 0.455307,0 0.889438,0 1.346763,0 0.06724,0 0.107602,0 0.174181,0 0.433786,0 0.891111,0 1.346752,0 0.04036,0 0.109609,0 0.151992,0 0.454637,0 0.891111,0 1.346752,0 0.06724,0 0.10894,0 0.172843,0 0.433786,0 0.891913,0 1.346752,0 0.04036,0 0.10894,0 0.151991,0 0.455987,0 0.912977,0 1.346752,0 0.06724,0 0.10894,0 0.174193,0 0.457324,0 0.89111,0 1.346751,0 0.06724,0 0.10894,0 0.172844,0 0.436473,0 0.891913,0 1.349238,0 0.04036,0 0.106933,0 0.149304,0 0.457994,0 0.891981,0 1.349306,0 0.06724,0 0.106933,0 0.174192,0 0.433786,0 0.888557,0 1.345882,0 0.04037,0 0.107602,0 0.15333,0 0.454637,0 0.912163,0 1.345949,0 0.06724,0 0.107602,0 0.174181,0 0.455987,0 0.891111,0 1.346763,0 0.04037,0 0.109609,0 0.151992,0 0.455975,0 0.912966,0 1.346752,0 0.06724,0 0.10894,0 0.174181,0 0.454637,0 0.891111,0 1.345882,0 0.06724,0 0.110278,0 0.174181,0 0.433786,0 0.891111,0 1.346763,0 0.04037,0 0.10894,0 0.151992,0 0.457994,0 0.891111,0 1.346752,0 2.304308,10.7757 4.606063,20.57206 6.932159,31.34776 l 2.387501,1.56614 c -2.192469,10.86145 -3.474459,16.57632 -7.472677,31.02158 -1.063485,0.0269 -2.128577,0 -3.193735,0 0,-0.0202 0,0 0,0 -0.476827,-0.0202 -0.955003,0 -1.431629,0 -0.02687,-0.0202 -0.06724,0 -0.110278,0 -0.478165,-0.0202 -0.955003,0 -1.434182,0 -0.02687,-0.0202 -0.06724,0 -0.107602,0 -0.478176,-0.0202 -0.955003,0 -1.434183,0 -0.02687,-0.0202 -0.06724,0 -0.110278,0 -0.476827,-0.0202 -0.955003,0 -1.431696,0 -0.02687,-0.0202 -0.06724,0 -0.110278,0 -0.454637,-0.0202 -0.955003,0 -1.434182,0 -0.02687,-0.0202 -0.06724,0 -0.08608,0 -0.478845,-0.0202 -0.976858,0 -1.456048,0 -0.02687,-0.0202 -0.06724,0 -0.08608,0 -0.478845,-0.0202 -0.958359,0 -1.434985,0 -0.04036,-0.0202 -0.08742,0 -0.10894,0 -0.476827,-0.0202 -0.955873,0 -1.432499,0 -0.04036,-0.0202 -0.06724,0 -0.109609,0 -0.478845,-0.0202 -0.955872,0 -1.434182,0 -0.04036,-0.0202 -0.06724,0 -0.107602,0 -0.478845,-0.0202 -0.955873,0 -1.434183,0 -0.04036,-0.0202 -0.06724,0 -0.110278,0 -0.476826,-0.0202 -0.955872,0 -1.431695,0 -0.04036,-0.0202 -0.06724,0 -0.110278,0 -0.476827,-0.0202 -0.955806,0 -1.43163,0 -0.02687,-0.0202 -0.06724,0 -0.110278,0 -0.478845,-0.0202 -0.955872,0 -1.434182,0 -0.02687,-0.0202 -0.06724,0 -0.107602,0 -0.479514,-0.0202 -0.955873,0 -1.434182,0 -0.02687,-0.0202 -0.06724,0 -0.110278,0 -0.476838,-0.0202 -0.955003,0 -1.431696,0 -0.02687,-0.0202 -0.06724,0 -0.08809,0 -0.476827,-0.0202 -0.976858,0 -1.456037,0 -0.02687,-0.0202 -0.06724,0 -0.08541,0 -0.479514,-0.0202 -0.955805,0 -1.434985,0 -0.04037,-0.0202 -0.08541,0 -0.106933,0 -0.478845,-0.0202 -0.955873,0 -1.435052,0 -0.04036,-0.0202 -0.06724,0 -0.109609,0 -0.476827,-0.0202 -0.955806,0 -1.432499,0 -0.04036,-0.0202 -0.06724,0 -0.10894,0 -0.476827,-0.0202 -0.955805,0 -1.434985,0 -0.04036,-0.0202 -0.06724,0 -0.106933,0 -0.478845,-0.0202 -0.955884,0 -1.435063,0 -0.04037,-0.0202 -0.06724,0 -0.106933,0 -0.478845,-0.0202 -0.958359,0 -1.434985,0 -0.01349,-0.0202 -0.06724,0 -0.10894,0 -0.476827,-0.0202 -0.955873,0 -1.432499,0 -0.02687,-0.0202 -0.06724,0 -0.10894,0 -0.478845,-0.0202 -0.955884,0 -1.434183,0 -0.02687,-0.0202 -0.06724,0 -0.08675,0 -0.478176,-0.0202 -0.976858,0 -1.456038,0 -0.01349,-0.0202 -0.06724,0 -0.08742,0 -0.476827,-0.0202 -0.977728,0 -1.454354,0 -0.01349,-0.0202 -0.06724,0 -0.08742,0 -0.476827,-0.0202 -0.955884,0 -1.43251,0 -0.04037,-0.0202 -0.08809,0 -0.10894,0 -0.478845,-0.0202 -0.955873,0 -1.435052,0 -0.04036,-0.0202 -0.08608,0 -0.106933,0 -0.478845,-0.0202 -0.955806,0 -1.434986,0 -0.04036,-0.0202 -0.06724,0 -0.108939,0 -0.476827,-0.0202 -0.955884,0 -1.43251,0 -0.04036,-0.0202 -0.06724,0 -0.10894,0 -0.476827,-0.0202 -0.955873,0 -1.435053,0 -0.04036,-0.0202 -0.06724,0 -0.106932,0 -0.478845,-0.0202 -0.955806,0 -1.434986,0 -0.01349,-0.0202 -0.06724,0 -0.106933,0 -0.479525,-0.0202 -0.95837,0 -1.435063,0 -0.02687,-0.0202 -0.06724,0 -0.109609,0 -0.476827,-0.0202 -0.955806,0 -1.432499,0 -0.02687,-0.0202 -0.06724,0 -0.08809,0 -0.476838,-0.0202 -0.976869,0 -1.456049,0 -0.01349,-0.0202 -0.06724,0 -0.08541,0 -0.478165,-0.0202 -0.976858,0 -1.456038,0 -0.02687,-0.0202 -0.06724,0 -0.08608,0 -0.478176,-0.0202 -0.95749,0 -1.456038,0 -0.01349,-0.0202 -0.06724,0 -0.08809,0 -0.476827,-0.0202 -0.954992,0 -1.431618,0 -0.04037,-0.0202 -0.08809,0 -0.110278,0 -0.478176,-0.0202 -0.955003,0 -1.434183,0 -0.04036,-0.0202 -0.08541,0 -0.107602,0 -0.478176,-0.0202 -0.955002,0 -1.434182,0 -0.04037,-0.0202 -0.06724,0 -0.109609,0 -0.476827,-0.0202 -0.955873,0 -1.432499,0 -0.04036,-0.0202 -0.06724,0 -0.109609,0 -0.476827,-0.0202 -0.955872,0 -1.435063,0 -0.04036,-0.0202 -0.06724,0 -0.106933,0 -0.479514,-0.0202 -0.955806,0 -1.434985,0 -0.01349,-0.0202 -0.06724,0 -0.107602,0 -0.478176,-0.0202 -0.957556,0 -1.434183,0 -0.01349,-0.0202 -0.06724,0 -0.08809,0 -0.476838,-0.0202 -0.976869,0 -1.453562,0 -0.02687,-0.0202 -0.06724,0 -0.08809,0 -0.476827,-0.0202 -0.955805,0 -1.456037,0 -0.01349,-0.0202 -0.06724,0 -0.08608,0 -0.478845,-0.0202 -0.955805,0 -1.456037,0 -0.01349,-0.0202 -0.06724,0 -0.08608,0 -0.478845,-0.0202 -0.95749,0 -1.434183,0 -0.04036,-0.0202 -0.08809,0 -0.110278,0 -0.476827,-0.0202 -0.955003,0 -1.431629,0 -0.04036,-0.0202 -0.08809,0 -0.110278,0 -0.478845,-0.0202 -0.955003,0 -1.434182,0 -0.04036,-0.0202 -0.06724,0 -0.107602,0 -0.478845,-0.0202 -0.955003,0 -1.4341826,0 -0.040365,-0.0202 -0.067237,0 -0.110278,0 -0.4768269,-0.0202 -0.9549918,0 -1.431696,0 -0.040365,-0.0202 -0.067237,0 -0.1102779,0 -0.4768269,-0.0202 -0.9550029,0 -1.4341825,0 -0.026873,-0.0202 -0.067237,0 -0.1076019,0 -0.4781761,-0.0202 -0.9550029,0 -1.4341825,0 -0.026873,-0.0202 -0.067237,0 -0.1076019,0 -0.4573247,-0.0202 -0.9574894,0 -1.4341825,0 -0.026873,-0.0202 -0.067237,0 -0.088089,0 -0.4768269,-0.0202 -0.9768578,0 -1.453484,0 -0.026873,-0.0202 -0.067237,0 -0.088089,0 -0.4768268,-0.0202 -0.95587259,0 -1.45603733,0 -0.0268726,-0.0202 -0.0672372,0 -0.0860815,0 -0.47884508,-0.0202 -0.95587263,0 -1.43418247,0 -0.040365,-0.0202 -0.08675,0 -0.1076019,0 -0.4788451,-0.0202 -0.9583592,0 -1.4350522,0 -0.040365,-0.0202 -0.08742,0 -0.10894,0 -0.4768379,-0.0202 -0.9558168,0 -1.4325099,0 -0.040365,-0.0202 -0.067237,0 -0.1096089,0 -0.4788451,-0.0202 -0.9558058,0 -1.4341825,0 -0.040365,-0.0202 -0.067237,0 -0.1076019,0 -0.4788451,-0.0202 -0.9558057,0 -1.4341825,0 0,-0.0202 0,0 0,0 -1.0651025,-0.0202 -2.128577,0 -3.1936681,0 l -7.735036,-31.56554 z m 12.3628866,31.54449 c -0.4788451,0 -0.9558057,0.0202 -1.4341825,0.0202 l 1.4341825,-0.0202 z m 8.0805218,-35.21646 76.3639366,0 -3.257627,-13.8383 -68.2186644,0 -4.8876452,13.8383 z m 147.5131676,29.84963 c -0.65034,23.78927 4.12682,46.03755 12.40573,67.28383 8.1469,20.94196 19.70449,41.05918 32.80381,60.78546 l 182.77167,85.487703 c 3.28109,1.541789 6.56307,3.086133 3.49799,9.60381 -3.04067,6.538729 -6.32184,4.994385 -9.60045,3.474455 L 186.82928,-115.8397 c -0.47683,-0.21655 -2.64978,-2.0638 -2.95492,-2.49759 -14.07617,-21.0302 -26.54666,-42.5816 -35.39051,-65.28223 -8.94977,-23.00826 -14.11908,-47.07831 -13.42549,-72.86757 0.10894,-3.62658 0.19572,-7.23474 7.45169,-7.03889 7.2348,0.19772 7.12714,3.82424 7.03977,7.42984 z m -265.02367,6.01919 c 9.82071,0 17.83734,7.53744 17.83734,16.79322 0,6.79846 -4.30168,12.66553 -10.49237,15.31531 -0.13115,0.6295 -0.13115,1.2181 0.1715,1.67294 0.6315,0.87006 4.56315,1.21816 5.32311,1.67294 3.779662,0.97685 3.693915,3.6939 3.693915,6.16963 1.389592,3.08613 3.648439,5.28109 8.364657,7.25673 12.622632,6.19063 24.049014,14.14255 35.80157,21.61611 4.930563,2.45388 2.497668,7.49453 -3.540893,5.67115 -11.991321,-5.30207 -24.54924,-8.32094 -33.673874,-13.81892 -2.237863,-0.0269 -4.49671,0 -6.734573,0 0.347705,9.08172 -1.541782,79.16834 -2.127762,102.087554 -0.43649,3.431619 -1.58719,5.583735 -4.23698,4.952429 -2.13025,0 -4.25883,0 -6.41095,0 -2.90952,-0.955883 -3.2357,-3.214731 -3.17101,-5.669481 -1.91167,-18.096332 -2.56236,-39.040772 -4.45386,-57.136952 l -3.08358,3.88893 c -14.53434,18.48714 -32.02277,36.84568 -47.77443,56.093651 -1.56358,1.519941 -3.12642,1.867969 -4.49671,1.498955 -1.95451,-0.564937 -4.23697,-3.040739 -4.8666,-5.278602 -0.47683,-1.715776 0.28381,-3.107988 1.2181,-4.389978 15.70626,-24.091916 31.43432,-48.207356 47.14307,-72.300076 -0.52189,-5.171 -0.73898,-18.98737 -1.45604,-21.83307 -0.36989,-1.47702 -0.25959,-1.37029 -1.3249,-0.36922 -9.77779,9.38436 -20.704,17.51027 -31.06778,26.265 -1.21473,0.82467 -1.82513,1.08703 -3.14996,0.12846 -1.47789,-1.08366 -3.27948,-2.84483 -4.01759,-3.6906 -1.1534,-1.28286 -0.24144,-2.30506 0.60797,-2.97678 12.64368,-12.66554 25.28815,-25.28815 37.93014,-37.9327 0.13047,-3.88894 -0.6295,-4.97589 2.45644,-6.99605 2.47574,-1.5418 7.03719,-3.64851 9.51555,-4.34459 -0.0672,-0.60796 -0.17418,-1.21561 -0.26228,-1.82506 -6.73462,-2.41191 -11.55752,-8.53871 -11.55752,-15.72811 0,-9.25578 8.01655,-16.79322 17.83644,-16.79322 z m 214.665887,124.28796 c 6.450413,0 11.709653,4.95404 11.709653,11.01445 0,3.10712 -1.37029,5.90991 -3.56445,7.90903 0.47818,0.0404 0.93652,0.0854 1.41314,0.12845 0.86932,-0.82466 1.47709,-1.77966 3.34506,-2.10672 8.32182,2.2807 16.66462,4.58501 24.9839,6.86578 1.82504,0.28046 3.51983,0.87006 4.41094,3.519855 -0.17418,1.410644 -0.36989,2.823774 -0.54273,4.212563 -1.75869,1.477971 -3.51985,1.99999 -5.27859,1.587256 -4.38991,-1.477089 -8.80094,-2.801986 -13.18755,-3.345872 -0.0672,6.799268 -0.11028,13.621339 -0.17419,20.422357 1.54179,2.84564 1.86797,11.274192 6.32184,16.704918 0.69607,2.478362 4.69261,2.063878 9.16746,1.239148 1.69486,0.08541 3.84609,-0.802806 4.75907,-0.06726 1.54178,1.214734 1.2156,5.168437 1.2156,8.86234 -0.0404,1.693916 0.13047,3.412245 -4.41102,5.106227 -8.31927,1.172701 -18.37785,3.214654 -19.70274,0.867571 l -8.801,-21.985192 c -0.23809,-0.04035 -6.27638,29.067801 -7.90647,35.020617 -4.17059,0.04035 -8.3428,0.108951 -12.491471,0.174186 -4.020151,-6.105817 7.386863,-45.101123 9.841681,-44.689192 -0.28313,-3.647637 -0.585779,-7.277645 -0.870126,-10.925337 -0.06724,-1.76117 -0.823851,-2.109209 -2.2799,-1.044118 -3.239062,3.04074 -6.453782,6.104941 -9.689555,9.145614 -1.218097,1.239216 -2.628741,2.106789 -5.281089,0.521885 -1.040749,-1.065158 -2.106722,-2.106789 -3.171813,-3.150025 -0.519868,-1.28199 -1.910876,-2.301755 1.065091,-4.585011 6.279813,-4.822883 12.558734,-9.622306 18.836049,-14.424204 0.130471,-1.651956 0.261612,-3.303036 0.390076,-4.933046 -0.01349,0 -0.06724,0 -0.106933,0 -6.431938,0 -11.710529,-4.95155 -11.710529,-11.03551 0,-6.06036 5.257539,-11.01438 11.710529,-11.01438 z m 123.527113,-11.99131 139.17038,0 0,-138.45492 16.85959,0 -43.21123,-21.9852 -43.23235,-21.96414 -43.21121,21.96414 -6.60512,3.34586 0,-12.86136 -12.4495,0 0,19.20506 -24.17767,12.29564 16.85711,0 0,138.45492 z m 69.58639,-164.08862 12.7303,6.03856 12.70844,6.03849 -25.43874,0 -25.44114,0 12.7303,-6.03849 12.71084,-6.03856 z m 16.61924,147.44592 0,-39.77713 -33.24088,0 0,39.77713 -36.8432,0 0,-110.10169 106.9508,0 0,110.10169 -36.86672,0 z m -1.36773,-67.23845 33.23751,0 0,-34.2825 -33.23751,0 0,34.2825 z m -63.74294,0 33.26193,0 0,-34.2825 -33.26193,0"
       style="fill:#ffffff;fill-opacity:1;fill-rule:evenodd;stroke:none"
       id="path6799" />
    <path
       d="m -43.520923,-85.141738 c -6.756428,0 -12.382188,5.628258 -12.382188,12.383883 0,6.734567 5.62576,12.361203 12.382188,12.361203 6.736324,0 12.362887,-5.626636 12.362887,-12.361203 0,-6.755625 -5.626563,-12.383883 -12.362887,-12.383883"
       style="fill:#ffffff;fill-opacity:1;fill-rule:evenodd;stroke:none"
       id="path6801" />
    <path
       style="fill:#ffffff;fill-opacity:1;stroke:none"
       d="m 0.64630037,171.5906 0,-170.5329766 341.56752963,0 341.56753,0 0,170.5329766 0,170.53299 -341.56753,0 -341.56752963,0 0,-170.53299 z m 671.09743963,-0.50156 0,-158.99693 -329.52991,0 -329.529907,0 0,158.99693 0,158.99692 329.529907,0 329.52991,0 0,-158.99692 z"
       id="path7511"
       transform="translate(-234.4815,-346.29495)" />
  </g>
</svg>
