<?xml version="1.0" encoding="UTF-8" standalone="no"?>
<!-- Created with Inkscape (http://www.inkscape.org/) -->
<svg
   xmlns:svg="http://www.w3.org/2000/svg"
   xmlns="http://www.w3.org/2000/svg"
   version="1.0"
   width="744.1875"
   height="991.90002"
   id="svg2"
   xml:space="preserve"><defs
     id="defs5"><clipPath
       id="clipPath19"><path
         d="M 0.496094,0.0351562 L 5952.9961,0.0351562 L 5952.9961,7934.6752 L 0.496094,7934.6752 L 0.496094,0.0351562 z"
         id="path21" /></clipPath></defs><g
     transform="matrix(1.25,0,0,-1.25,0,991.9)"
     id="g11"><g
       transform="scale(0.1,0.1)"
       id="g13"><g
         id="g15"><g
           clip-path="url(#clipPath19)"
           id="g17"><path
             d="M 4.03516,3.56641 L 5949.7152,3.56641 L 5949.7152,7931.1364 L 4.03516,7931.1364 L 4.03516,3.56641 z"
             id="path23"
             style="fill:#ffffff;fill-opacity:1;fill-rule:nonzero;stroke:none" /><path
             d="M 4.03516,3.56641 L 5949.7152,3.56641 L 5949.7152,7931.1364 L 4.03516,7931.1364 L 4.03516,3.56641 z"
             id="path25"
             style="fill:none;stroke:#000000;stroke-width:7.07818985;stroke-linecap:round;stroke-linejoin:round;stroke-miterlimit:500;stroke-dasharray:none;stroke-opacity:1" /><path
             d="M 747.246,974.695 C 747.246,908.996 773.348,845.965 819.805,799.516 C 866.266,753.055 929.277,726.957 994.977,726.957 L 4958.77,726.957 C 5024.46,726.957 5087.48,753.055 5133.95,799.516 C 5180.39,845.965 5206.51,908.996 5206.51,974.695 L 5206.51,4938.48 C 5206.51,5004.18 5180.39,5067.18 5133.95,5113.66 C 5087.48,5160.11 5024.46,5186.21 4958.77,5186.21 L 994.977,5186.21 C 858.168,5186.21 747.246,5075.3 747.246,4938.48 L 747.246,974.695"
             id="path27"
             style="fill:#0046ac;fill-opacity:1;fill-rule:nonzero;stroke:none" /><path
             d="M 747.246,974.695 C 747.246,908.996 773.348,845.965 819.805,799.516 C 866.266,753.055 929.277,726.957 994.977,726.957 L 4958.77,726.957 C 5024.46,726.957 5087.48,753.055 5133.95,799.516 C 5180.39,845.965 5206.51,908.996 5206.51,974.695 L 5206.51,4938.48 C 5206.51,5004.18 5180.39,5067.18 5133.95,5113.66 C 5087.48,5160.11 5024.46,5186.21 4958.77,5186.21 L 994.977,5186.21 C 858.168,5186.21 747.246,5075.3 747.246,4938.48 L 747.246,974.695 z"
             id="path29"
             style="fill:none;stroke:#0046ac;stroke-width:7.07818985;stroke-linecap:round;stroke-linejoin:round;stroke-miterlimit:500;stroke-dasharray:none;stroke-opacity:1" /><path
             d="M 2007.02,2515.71 L 1796.45,3124.02 C 1766.48,3210.59 1689.46,3272.25 1598.44,3282.55 C 1507.42,3292.84 1418.57,3249.96 1370.03,3172.27 L 1143.62,2810.05 L 1143.62,2507.8 C 1143.62,2466.75 1176.89,2433.48 1217.95,2433.48 C 1259,2433.48 1292.27,2466.75 1292.27,2507.8 L 1292.27,2730.77 L 1341.82,2810.05 L 1341.82,2080.52 L 1186.73,1743.54 C 1163.84,1693.82 1185.6,1634.96 1235.3,1612.09 C 1285.03,1589.21 1343.88,1610.95 1366.76,1660.68 L 1569.73,2101.7 L 1569.73,2356.07 L 1812.05,1677.57 C 1832.3,1620.88 1894.68,1591.32 1951.38,1611.57 C 2008.07,1631.82 2037.62,1694.2 2017.37,1750.89 L 1738.2,2532.59 L 1738.2,2837.89 L 1866.55,2467.09 C 1874.87,2441.5 1896.35,2422.41 1922.71,2417.16 C 1949.1,2411.89 1976.25,2421.3 1993.73,2441.75 C 2011.21,2462.18 2016.3,2490.46 2007.02,2515.7"
             id="path31"
             style="fill:#ffffff;fill-opacity:1;fill-rule:nonzero;stroke:none" /><path
             d="M 2007.02,2515.71 L 1796.45,3124.02 C 1766.48,3210.59 1689.46,3272.25 1598.44,3282.55 C 1507.42,3292.84 1418.57,3249.96 1370.03,3172.27 L 1143.62,2810.05 L 1143.62,2507.8 C 1143.62,2466.75 1176.89,2433.48 1217.95,2433.48 C 1259,2433.48 1292.27,2466.75 1292.27,2507.8 L 1292.27,2730.77 L 1341.82,2810.05 L 1341.82,2080.52 L 1186.73,1743.54 C 1163.84,1693.82 1185.6,1634.96 1235.3,1612.09 C 1285.03,1589.21 1343.88,1610.95 1366.76,1660.68 L 1569.73,2101.7 L 1569.73,2356.07 L 1812.05,1677.57 C 1832.3,1620.88 1894.68,1591.32 1951.38,1611.57 C 2008.07,1631.82 2037.62,1694.2 2017.37,1750.89 L 1738.2,2532.59 L 1738.2,2837.89 L 1866.55,2467.09 C 1874.87,2441.5 1896.35,2422.41 1922.71,2417.16 C 1949.1,2411.89 1976.25,2421.3 1993.73,2441.75 C 2011.21,2462.18 2016.3,2490.46 2007.02,2515.7 L 2007.02,2515.71 z"
             id="path33"
             style="fill:none;stroke:#ffffff;stroke-width:7.07818985;stroke-linecap:round;stroke-linejoin:round;stroke-miterlimit:500;stroke-dasharray:none;stroke-opacity:1" /><path
             d="M 3142.05,1612.18 C 3142.05,1738.05 3040.02,1840.09 2914.14,1840.09 C 2788.27,1840.09 2686.23,1738.05 2686.23,1612.18 C 2686.23,1486.3 2788.27,1384.25 2914.14,1384.25 C 3040.02,1384.25 3142.05,1486.3 3142.05,1612.18"
             id="path35"
             style="fill:#ffffff;fill-opacity:1;fill-rule:nonzero;stroke:none" /><path
             d="M 3142.05,1612.18 C 3142.05,1738.05 3040.02,1840.09 2914.14,1840.09 C 2788.27,1840.09 2686.23,1738.05 2686.23,1612.18 C 2686.23,1486.3 2788.27,1384.25 2914.14,1384.25 C 3040.02,1384.25 3142.05,1486.3 3142.05,1612.18 z"
             id="path37"
             style="fill:none;stroke:#ffffff;stroke-width:7.07818985;stroke-linecap:round;stroke-linejoin:round;stroke-miterlimit:500;stroke-dasharray:none;stroke-opacity:1" /><path
             d="M 3299.69,1464.93 L 3567,1999.59 L 3434.93,2245.39 L 3286.76,1949.04 C 3268.41,1912.32 3223.77,1897.43 3187.05,1915.8 C 3150.34,1934.16 3135.46,1978.8 3153.82,2015.5 L 3353.79,2415.46 C 3394.07,2496.02 3476.43,2546.93 3566.52,2546.93 L 3831.78,2546.93 C 3875.57,2546.93 3915.8,2522.88 3936.53,2484.3 L 4090.07,2198.48 C 4102.98,2175.07 4102.32,2146.52 4088.32,2123.73 C 4074.32,2100.93 4049.18,2087.43 4022.46,2088.34 C 3995.73,2089.25 3971.55,2104.45 3959.14,2128.14 L 3819.32,2388.38 L 3729.32,2388.38 L 4048.78,1793.82 L 4311.66,1793.82 C 4366.39,1793.82 4410.76,1749.45 4410.76,1694.71 C 4410.76,1640 4366.39,1595.61 4311.66,1595.61 L 4001.38,1595.61 C 3957.6,1595.61 3917.36,1619.68 3896.62,1658.25 L 3752.28,1926.95 L 3476.95,1376.3 C 3452.46,1327.36 3392.95,1307.52 3344,1331.98 C 3295.04,1356.46 3275.21,1415.98 3299.69,1464.93"
             id="path39"
             style="fill:#ffffff;fill-opacity:1;fill-rule:nonzero;stroke:none" /><path
             d="M 3299.69,1464.93 L 3567,1999.59 L 3434.93,2245.39 L 3286.76,1949.04 C 3268.41,1912.32 3223.77,1897.43 3187.05,1915.8 C 3150.34,1934.16 3135.46,1978.8 3153.82,2015.5 L 3353.79,2415.46 C 3394.07,2496.02 3476.43,2546.93 3566.52,2546.93 L 3831.78,2546.93 C 3875.57,2546.93 3915.8,2522.88 3936.53,2484.3 L 4090.07,2198.48 C 4102.98,2175.07 4102.32,2146.52 4088.32,2123.73 C 4074.32,2100.93 4049.18,2087.43 4022.46,2088.34 C 3995.73,2089.25 3971.55,2104.45 3959.14,2128.14 L 3819.32,2388.38 L 3729.32,2388.38 L 4048.78,1793.82 L 4311.66,1793.82 C 4366.39,1793.82 4410.76,1749.45 4410.76,1694.71 C 4410.76,1640 4366.39,1595.61 4311.66,1595.61 L 4001.38,1595.61 C 3957.6,1595.61 3917.36,1619.68 3896.62,1658.25 L 3752.28,1926.95 L 3476.95,1376.3 C 3452.46,1327.36 3392.95,1307.52 3344,1331.98 C 3295.04,1356.46 3275.21,1415.98 3299.69,1464.93 z"
             id="path41"
             style="fill:none;stroke:#ffffff;stroke-width:7.07818985;stroke-linecap:round;stroke-linejoin:round;stroke-miterlimit:500;stroke-dasharray:none;stroke-opacity:1" /><path
             d="M 3527.18,2726.3 C 3527.18,2830.29 3442.88,2914.59 3338.91,2914.59 C 3234.92,2914.59 3150.62,2830.29 3150.62,2726.3 C 3150.62,2622.32 3234.92,2538.02 3338.91,2538.02 C 3442.88,2538.02 3527.18,2622.32 3527.18,2726.3"
             id="path43"
             style="fill:#ffffff;fill-opacity:1;fill-rule:nonzero;stroke:none" /><path
             d="M 3527.18,2726.3 C 3527.18,2830.29 3442.88,2914.59 3338.91,2914.59 C 3234.92,2914.59 3150.62,2830.29 3150.62,2726.3 C 3150.62,2622.32 3234.92,2538.02 3338.91,2538.02 C 3442.88,2538.02 3527.18,2622.32 3527.18,2726.3 z"
             id="path45"
             style="fill:none;stroke:#ffffff;stroke-width:7.07818985;stroke-linecap:round;stroke-linejoin:round;stroke-miterlimit:500;stroke-dasharray:none;stroke-opacity:1" /><path
             d="M 1787.73,3523.52 C 1787.73,3632.98 1699.01,3721.71 1589.55,3721.71 C 1480.09,3721.71 1391.36,3632.98 1391.36,3523.52 C 1391.36,3414.07 1480.09,3325.34 1589.55,3325.34 C 1699.01,3325.34 1787.73,3414.07 1787.73,3523.52"
             id="path47"
             style="fill:#ffffff;fill-opacity:1;fill-rule:nonzero;stroke:none" /><path
             d="M 1787.73,3523.52 C 1787.73,3632.98 1699.01,3721.71 1589.55,3721.71 C 1480.09,3721.71 1391.36,3632.98 1391.36,3523.52 C 1391.36,3414.07 1480.09,3325.34 1589.55,3325.34 C 1699.01,3325.34 1787.73,3414.07 1787.73,3523.52 z"
             id="path49"
             style="fill:none;stroke:#ffffff;stroke-width:7.07818985;stroke-linecap:round;stroke-linejoin:round;stroke-miterlimit:500;stroke-dasharray:none;stroke-opacity:1" /><path
             d="M 4958.77,4351.73 L 4344.91,4938.48 L 3731.07,4351.73 L 3849.45,4351.73 L 3849.45,3393.39 L 4221.05,3393.39 L 4221.05,3764.98 L 4468.79,3764.98 L 4468.79,3393.39 L 4840.39,3393.39 L 4840.39,4351.73 L 4958.77,4351.73"
             id="path51"
             style="fill:#ffffff;fill-opacity:1;fill-rule:nonzero;stroke:none" /><path
             d="M 4958.77,4351.73 L 4344.91,4938.48 L 3731.07,4351.73 L 3849.45,4351.73 L 3849.45,3393.39 L 4221.05,3393.39 L 4221.05,3764.98 L 4468.79,3764.98 L 4468.79,3393.39 L 4840.39,3393.39 L 4840.39,4351.73 L 4958.77,4351.73 z"
             id="path53"
             style="fill:none;stroke:#ffffff;stroke-width:7.07818985;stroke-linecap:round;stroke-linejoin:round;stroke-miterlimit:500;stroke-dasharray:none;stroke-opacity:1" /><path
             d="M 4221.05,3913.62 L 4468.788,3913.62 L 4468.788,4161.358 L 4221.05,4161.358 L 4221.05,3913.62 z"
             id="path55"
             style="fill:#0046ac;fill-opacity:1;fill-rule:nonzero;stroke:none" /><path
             d="M 4221.05,3913.62 L 4468.788,3913.62 L 4468.788,4161.358 L 4221.05,4161.358 L 4221.05,3913.62 z"
             id="path57"
             style="fill:none;stroke:#0046ac;stroke-width:3.44077992;stroke-linecap:round;stroke-linejoin:round;stroke-miterlimit:500;stroke-dasharray:none;stroke-opacity:1" /><path
             d="M 2965.35,4591.64 L 2891.17,4777.09 C 2876.12,4814.71 2839.69,4839.39 2799.16,4839.39 L 2239.68,4839.39 C 2199.17,4839.39 2162.73,4814.71 2147.68,4777.09 L 2073.5,4591.64 C 2046.12,4591.64 2023.95,4569.46 2023.95,4542.11 L 2023.95,4294.36 C 2023.95,4281.23 2029.17,4268.61 2038.46,4259.32 C 2047.76,4250.04 2060.36,4244.82 2073.5,4244.82 L 2073.5,4145.71 C 2073.5,4132.57 2078.71,4119.98 2088.01,4110.68 C 2097.3,4101.39 2109.91,4096.18 2123.04,4096.18 L 2172.59,4096.18 C 2185.73,4096.18 2198.34,4101.39 2207.62,4110.68 C 2216.93,4119.98 2222.14,4132.57 2222.14,4145.71 L 2222.14,4244.82 L 2816.71,4244.82 L 2816.71,4145.71 C 2816.71,4132.57 2821.93,4119.98 2831.21,4110.68 C 2840.51,4101.39 2853.11,4096.18 2866.26,4096.18 L 2915.8,4096.18 C 2928.95,4096.18 2941.55,4101.39 2950.84,4110.68 C 2960.12,4119.98 2965.35,4132.57 2965.35,4145.71 L 2965.35,4244.82 C 2978.48,4244.82 2991.09,4250.04 3000.38,4259.32 C 3009.68,4268.61 3014.89,4281.23 3014.89,4294.36 L 3014.89,4542.11 C 3014.89,4555.23 3009.68,4567.84 3000.38,4577.14 C 2991.09,4586.43 2978.48,4591.64 2965.35,4591.64"
             id="path59"
             style="fill:#ffffff;fill-opacity:1;fill-rule:nonzero;stroke:none" /><path
             d="M 2965.35,4591.64 L 2891.17,4777.09 C 2876.12,4814.71 2839.69,4839.39 2799.16,4839.39 L 2239.68,4839.39 C 2199.17,4839.39 2162.73,4814.71 2147.68,4777.09 L 2073.5,4591.64 C 2046.12,4591.64 2023.95,4569.46 2023.95,4542.11 L 2023.95,4294.36 C 2023.95,4281.23 2029.17,4268.61 2038.46,4259.32 C 2047.76,4250.04 2060.36,4244.82 2073.5,4244.82 L 2073.5,4145.71 C 2073.5,4132.57 2078.71,4119.98 2088.01,4110.68 C 2097.3,4101.39 2109.91,4096.18 2123.04,4096.18 L 2172.59,4096.18 C 2185.73,4096.18 2198.34,4101.39 2207.62,4110.68 C 2216.93,4119.98 2222.14,4132.57 2222.14,4145.71 L 2222.14,4244.82 L 2816.71,4244.82 L 2816.71,4145.71 C 2816.71,4132.57 2821.93,4119.98 2831.21,4110.68 C 2840.51,4101.39 2853.11,4096.18 2866.26,4096.18 L 2915.8,4096.18 C 2928.95,4096.18 2941.55,4101.39 2950.84,4110.68 C 2960.12,4119.98 2965.35,4132.57 2965.35,4145.71 L 2965.35,4244.82 C 2978.48,4244.82 2991.09,4250.04 3000.38,4259.32 C 3009.68,4268.61 3014.89,4281.23 3014.89,4294.36 L 3014.89,4542.11 C 3014.89,4555.23 3009.68,4567.84 3000.38,4577.14 C 2991.09,4586.43 2978.48,4591.64 2965.35,4591.64 z"
             id="path61"
             style="fill:none;stroke:#ffffff;stroke-width:7.07818985;stroke-linecap:round;stroke-linejoin:round;stroke-miterlimit:500;stroke-dasharray:none;stroke-opacity:1" /><path
             d="M 2950.48,4452.91 C 2950.48,4485.75 2923.86,4512.38 2891.03,4512.38 C 2858.19,4512.38 2831.57,4485.75 2831.57,4452.91 C 2831.57,4420.07 2858.19,4393.45 2891.03,4393.45 C 2923.86,4393.45 2950.48,4420.07 2950.48,4452.91"
             id="path63"
             style="fill:#0046ac;fill-opacity:1;fill-rule:nonzero;stroke:none" /><path
             d="M 2950.48,4452.91 C 2950.48,4485.75 2923.86,4512.38 2891.03,4512.38 C 2858.19,4512.38 2831.57,4485.75 2831.57,4452.91 C 2831.57,4420.07 2858.19,4393.45 2891.03,4393.45 C 2923.86,4393.45 2950.48,4420.07 2950.48,4452.91 z"
             id="path65"
             style="fill:none;stroke:#0046ac;stroke-width:7.07818985;stroke-linecap:round;stroke-linejoin:round;stroke-miterlimit:500;stroke-dasharray:none;stroke-opacity:1" /><path
             d="M 2350.96,4343.91 C 2343.07,4343.91 2335.52,4347.05 2329.94,4352.62 C 2324.37,4358.2 2321.23,4365.75 2321.23,4373.64 L 2321.23,4413.27 C 2321.23,4429.7 2334.55,4443 2350.96,4443 L 2687.89,4443 C 2695.77,4443 2703.32,4439.88 2708.91,4434.3 C 2714.48,4428.73 2717.61,4421.16 2717.61,4413.27 L 2717.61,4373.64 C 2717.61,4357.21 2704.3,4343.91 2687.89,4343.91 L 2350.96,4343.91"
             id="path67"
             style="fill:#0046ac;fill-opacity:1;fill-rule:nonzero;stroke:none" /><path
             d="M 2350.96,4343.91 C 2343.07,4343.91 2335.52,4347.05 2329.94,4352.62 C 2324.37,4358.2 2321.23,4365.75 2321.23,4373.64 L 2321.23,4413.27 C 2321.23,4429.7 2334.55,4443 2350.96,4443 L 2687.89,4443 C 2695.77,4443 2703.32,4439.88 2708.91,4434.3 C 2714.48,4428.73 2717.61,4421.16 2717.61,4413.27 L 2717.61,4373.64 C 2717.61,4357.21 2704.3,4343.91 2687.89,4343.91 L 2350.96,4343.91 z"
             id="path69"
             style="fill:none;stroke:#0046ac;stroke-width:5.50524998;stroke-linecap:round;stroke-linejoin:round;stroke-miterlimit:500;stroke-dasharray:none;stroke-opacity:1" /><path
             d="M 2207.28,4452.91 C 2207.28,4485.75 2180.66,4512.38 2147.82,4512.38 C 2114.98,4512.38 2088.37,4485.75 2088.37,4452.91 C 2088.37,4420.07 2114.98,4393.45 2147.82,4393.45 C 2180.66,4393.45 2207.28,4420.07 2207.28,4452.91"
             id="path71"
             style="fill:#0046ac;fill-opacity:1;fill-rule:nonzero;stroke:none" /><path
             d="M 2207.28,4452.91 C 2207.28,4485.75 2180.66,4512.38 2147.82,4512.38 C 2114.98,4512.38 2088.37,4485.75 2088.37,4452.91 C 2088.37,4420.07 2114.98,4393.45 2147.82,4393.45 C 2180.66,4393.45 2207.28,4420.07 2207.28,4452.91 z"
             id="path73"
             style="fill:none;stroke:#0046ac;stroke-width:7.07818985;stroke-linecap:round;stroke-linejoin:round;stroke-miterlimit:500;stroke-dasharray:none;stroke-opacity:1" /><path
             d="M 2273.23,4740.29 C 2252.96,4740.29 2234.75,4727.96 2227.23,4709.14 L 2180.23,4591.64 L 2858.62,4591.64 L 2811.62,4709.14 C 2804.1,4727.96 2785.88,4740.29 2765.62,4740.29 L 2273.23,4740.29"
             id="path75"
             style="fill:#0046ac;fill-opacity:1;fill-rule:nonzero;stroke:none" /><path
             d="M 2273.23,4740.29 C 2252.96,4740.29 2234.75,4727.96 2227.23,4709.14 L 2180.23,4591.64 L 2858.62,4591.64 L 2811.62,4709.14 C 2804.1,4727.96 2785.88,4740.29 2765.62,4740.29 L 2273.23,4740.29 z"
             id="path77"
             style="fill:none;stroke:#0046ac;stroke-width:7.07818985;stroke-linecap:round;stroke-linejoin:round;stroke-miterlimit:500;stroke-dasharray:none;stroke-opacity:1" /><path
             d="M 1760.2,6079.75 C 1532.52,6013.52 1286.8,6064.57 1104.38,6216.05 L 1231.21,6368.8 C 1355.79,6265.36 1521.73,6226.45 1679.3,6263.7 C 1747.84,6279.89 1798.14,6338.39 1803.89,6408.57 C 1809.66,6478.75 1769.55,6544.66 1704.57,6571.8 C 1670.96,6585.84 1636.32,6597.21 1600.95,6605.84 L 1478.39,6635.73 C 1419.44,6650.11 1363.21,6674.02 1311.94,6706.48 C 1209.45,6771.39 1149.86,6886.46 1155.96,7007.61 C 1162.1,7128.77 1232.98,7237.25 1341.48,7291.5 C 1368.1,7304.82 1395.8,7315.8 1424.3,7324.36 C 1582.55,7371.82 1752.96,7357.12 1900.73,7283.23 C 1933,7267.11 1963.57,7247.75 1991.96,7225.48 L 1861.3,7067.82 C 1826.86,7096.38 1787.17,7117.93 1744.46,7131.27 C 1652.69,7159.95 1554.12,7158.38 1463.3,7126.79 C 1409.21,7107.98 1371.39,7058.91 1366.96,7001.82 C 1362.52,6944.73 1392.3,6890.43 1442.82,6863.46 C 1468.85,6849.59 1496.48,6839 1525.09,6831.93 L 1651.35,6800.73 C 1705.29,6787.39 1757.86,6769.09 1808.42,6746.05 C 1943.96,6684.29 2026.78,6544.71 2016.04,6396.14 C 2005.28,6247.57 1903.23,6121.36 1760.2,6079.75"
             id="path79"
             style="fill:#000000;fill-opacity:1;fill-rule:nonzero;stroke:none" /><path
             d="M 1760.2,6079.75 C 1532.52,6013.52 1286.8,6064.57 1104.38,6216.05 L 1231.21,6368.8 C 1355.79,6265.36 1521.73,6226.45 1679.3,6263.7 C 1747.84,6279.89 1798.14,6338.39 1803.89,6408.57 C 1809.66,6478.75 1769.55,6544.66 1704.57,6571.8 C 1670.96,6585.84 1636.32,6597.21 1600.95,6605.84 L 1478.39,6635.73 C 1419.44,6650.11 1363.21,6674.02 1311.94,6706.48 C 1209.45,6771.39 1149.86,6886.46 1155.96,7007.61 C 1162.1,7128.77 1232.98,7237.25 1341.48,7291.5 C 1368.1,7304.82 1395.8,7315.8 1424.3,7324.36 C 1582.55,7371.82 1752.96,7357.12 1900.73,7283.23 C 1933,7267.11 1963.57,7247.75 1991.96,7225.48 L 1861.3,7067.82 C 1826.86,7096.38 1787.17,7117.93 1744.46,7131.27 C 1652.69,7159.95 1554.12,7158.38 1463.3,7126.79 C 1409.21,7107.98 1371.39,7058.91 1366.96,7001.82 C 1362.52,6944.73 1392.3,6890.43 1442.82,6863.46 C 1468.85,6849.59 1496.48,6839 1525.09,6831.93 L 1651.35,6800.73 C 1705.29,6787.39 1757.86,6769.09 1808.42,6746.05 C 1943.96,6684.29 2026.78,6544.71 2016.04,6396.14 C 2005.28,6247.57 1903.23,6121.36 1760.2,6079.75 z"
             id="path81"
             style="fill:none;stroke:#000000;stroke-width:7.07818985;stroke-linecap:round;stroke-linejoin:round;stroke-miterlimit:500;stroke-dasharray:none;stroke-opacity:1" /><path
             d="M 2242.11,6707.03 C 2213.14,6587.09 2213.14,6461.98 2242.11,6342.05 C 2283.04,6172.5 2434.76,6053.05 2609.18,6053.05 C 2783.59,6053.05 2935.3,6172.5 2976.23,6342.05 C 3005.21,6461.98 3005.21,6587.09 2976.23,6707.03 C 2935.3,6876.57 2783.59,6996.02 2609.18,6996.02 C 2434.76,6996.02 2283.04,6876.57 2242.11,6707.03"
             id="path83"
             style="fill:#000000;fill-opacity:1;fill-rule:nonzero;stroke:none" /><path
             d="M 2242.11,6707.03 C 2213.14,6587.09 2213.14,6461.98 2242.11,6342.05 C 2283.04,6172.5 2434.76,6053.05 2609.18,6053.05 C 2783.59,6053.05 2935.3,6172.5 2976.23,6342.05 C 3005.21,6461.98 3005.21,6587.09 2976.23,6707.03 C 2935.3,6876.57 2783.59,6996.02 2609.18,6996.02 C 2434.76,6996.02 2283.04,6876.57 2242.11,6707.03 z"
             id="path85"
             style="fill:none;stroke:#000000;stroke-width:7.07818985;stroke-linecap:round;stroke-linejoin:round;stroke-miterlimit:500;stroke-dasharray:none;stroke-opacity:1" /><path
             d="M 252.766,252.297 C 278.785,226.285 314.074,211.664 350.875,211.664 L 5602.88,211.664 C 5679.51,211.664 5741.62,273.773 5741.62,350.406 L 5741.62,7584.3 C 5741.62,7621.11 5727,7656.39 5700.98,7682.41 C 5674.96,7708.41 5639.68,7723.04 5602.88,7723.04 L 350.875,7723.04 C 314.074,7723.04 278.785,7708.41 252.766,7682.41 C 226.746,7656.39 212.137,7621.11 212.137,7584.3 L 212.137,350.406 C 212.137,313.594 226.758,278.324 252.766,252.297 z M 73.4062,350.406 L 73.4062,7584.3 C 73.4062,7657.89 102.637,7728.46 154.676,7780.5 C 206.715,7832.55 277.285,7861.77 350.875,7861.77 L 5602.88,7861.77 C 5756.12,7861.77 5880.35,7737.55 5880.35,7584.32 L 5880.35,350.414 C 5880.35,276.816 5851.12,206.246 5799.07,154.215 C 5747.04,102.176 5676.48,72.9453 5602.88,72.9453 L 350.875,72.9453 C 197.637,72.9453 73.4062,197.176 73.4062,350.414"
             id="path87"
             style="fill:#000000;fill-opacity:1;fill-rule:nonzero;stroke:none" /><path
             d="M 252.766,252.297 C 278.785,226.285 314.074,211.664 350.875,211.664 L 5602.88,211.664 C 5679.51,211.664 5741.62,273.773 5741.62,350.406 L 5741.62,7584.3 C 5741.62,7621.11 5727,7656.39 5700.98,7682.41 C 5674.96,7708.41 5639.68,7723.04 5602.88,7723.04 L 350.875,7723.04 C 314.074,7723.04 278.785,7708.41 252.766,7682.41 C 226.746,7656.39 212.137,7621.11 212.137,7584.3 L 212.137,350.406 C 212.137,313.594 226.758,278.324 252.766,252.297 z M 73.4062,350.406 L 73.4062,7584.3 C 73.4062,7657.89 102.637,7728.46 154.676,7780.5 C 206.715,7832.55 277.285,7861.77 350.875,7861.77 L 5602.88,7861.77 C 5756.12,7861.77 5880.35,7737.55 5880.35,7584.32 L 5880.35,350.414 C 5880.35,276.816 5851.12,206.246 5799.07,154.215 C 5747.04,102.176 5676.48,72.9453 5602.88,72.9453 L 350.875,72.9453 C 197.637,72.9453 73.4062,197.176 73.4062,350.414 L 73.4062,350.406 z"
             id="path89"
             style="fill:none;stroke:#000000;stroke-width:7.07818985;stroke-linecap:round;stroke-linejoin:round;stroke-miterlimit:500;stroke-dasharray:none;stroke-opacity:1" /><path
             d="M 2430.43,6686.03 C 2400.39,6580.46 2400.39,6468.61 2430.43,6363.04 C 2453.17,6283.16 2526.12,6228.07 2609.18,6228.07 C 2692.21,6228.07 2765.19,6283.16 2787.91,6363.04 C 2817.96,6468.61 2817.96,6580.46 2787.91,6686.03 C 2765.19,6765.89 2692.21,6821 2609.18,6821 C 2526.12,6821 2453.17,6765.89 2430.43,6686.03"
             id="path91"
             style="fill:#ffffff;fill-opacity:1;fill-rule:nonzero;stroke:none" /><path
             d="M 2430.43,6686.03 C 2400.39,6580.46 2400.39,6468.61 2430.43,6363.04 C 2453.17,6283.16 2526.12,6228.07 2609.18,6228.07 C 2692.21,6228.07 2765.19,6283.16 2787.91,6363.04 C 2817.96,6468.61 2817.96,6580.46 2787.91,6686.03 C 2765.19,6765.89 2692.21,6821 2609.18,6821 C 2526.12,6821 2453.17,6765.89 2430.43,6686.03 z"
             id="path93"
             style="fill:none;stroke:#ffffff;stroke-width:5.79940987;stroke-linecap:round;stroke-linejoin:round;stroke-miterlimit:500;stroke-dasharray:none;stroke-opacity:1" /><path
             d="M 3907.11,6078.07 L 3907.11,6683.48 C 3907.11,6766.38 3874.18,6845.86 3815.57,6904.48 C 3756.96,6963.09 3677.46,6996.02 3594.58,6996.02 C 3512.28,6996.02 3432.6,6967.02 3369.55,6914.09 L 3369.55,6971 L 3182.03,6971 L 3182.03,6078.07 L 3369.55,6078.07 L 3369.55,6645.98 C 3369.55,6708.5 3402.91,6766.29 3457.05,6797.55 C 3511.21,6828.82 3577.93,6828.82 3632.08,6797.55 C 3686.23,6766.29 3719.59,6708.5 3719.59,6645.98 L 3719.59,6078.07 L 3907.11,6078.07"
             id="path95"
             style="fill:#000000;fill-opacity:1;fill-rule:nonzero;stroke:none" /><path
             d="M 3907.11,6078.07 L 3907.11,6683.48 C 3907.11,6766.38 3874.18,6845.86 3815.57,6904.48 C 3756.96,6963.09 3677.46,6996.02 3594.58,6996.02 C 3512.28,6996.02 3432.6,6967.02 3369.55,6914.09 L 3369.55,6971 L 3182.03,6971 L 3182.03,6078.07 L 3369.55,6078.07 L 3369.55,6645.98 C 3369.55,6708.5 3402.91,6766.29 3457.05,6797.55 C 3511.21,6828.82 3577.93,6828.82 3632.08,6797.55 C 3686.23,6766.29 3719.59,6708.5 3719.59,6645.98 L 3719.59,6078.07 L 3907.11,6078.07 z"
             id="path97"
             style="fill:none;stroke:#000000;stroke-width:7.07818985;stroke-linecap:round;stroke-linejoin:round;stroke-miterlimit:500;stroke-dasharray:none;stroke-opacity:1" /><path
             d="M 4469.02,6053.05 C 4303.44,6053.05 4158.32,6163.84 4114.69,6323.55 C 4078.75,6455.12 4078.75,6593.93 4114.69,6725.5 C 4158.32,6885.23 4303.44,6996.02 4469.02,6996.02 C 4634.6,6996.02 4779.7,6885.23 4823.34,6725.5 C 4844.54,6647.89 4853.32,6567.39 4849.39,6487.02 L 4276.48,6487.02 C 4279.5,6440.66 4288.14,6394.82 4302.2,6350.52 C 4325.42,6277.89 4392.76,6228.45 4469.02,6228.07 C 4553.64,6228.07 4630.89,6276.32 4668.02,6352.39 L 4825.3,6275.61 C 4758.82,6139.45 4620.55,6053.07 4469.02,6053.05"
             id="path99"
             style="fill:#000000;fill-opacity:1;fill-rule:nonzero;stroke:none" /><path
             d="M 4469.02,6053.05 C 4303.44,6053.05 4158.32,6163.84 4114.69,6323.55 C 4078.75,6455.12 4078.75,6593.93 4114.69,6725.5 C 4158.32,6885.23 4303.44,6996.02 4469.02,6996.02 C 4634.6,6996.02 4779.7,6885.23 4823.34,6725.5 C 4844.54,6647.89 4853.32,6567.39 4849.39,6487.02 L 4276.48,6487.02 C 4279.5,6440.66 4288.14,6394.82 4302.2,6350.52 C 4325.42,6277.89 4392.76,6228.45 4469.02,6228.07 C 4553.64,6228.07 4630.89,6276.32 4668.02,6352.39 L 4825.3,6275.61 C 4758.82,6139.45 4620.55,6053.07 4469.02,6053.05 z"
             id="path101"
             style="fill:none;stroke:#000000;stroke-width:7.07818985;stroke-linecap:round;stroke-linejoin:round;stroke-miterlimit:500;stroke-dasharray:none;stroke-opacity:1" /><path
             d="M 4302.2,6698.54 C 4295.79,6678.34 4290.51,6657.82 4286.36,6637.05 L 4651.67,6637.05 C 4647.52,6657.82 4642.23,6678.34 4635.83,6698.54 C 4612.76,6771.21 4545.28,6820.59 4469.02,6820.59 C 4392.76,6820.59 4325.29,6771.21 4302.2,6698.54"
             id="path103"
             style="fill:#ffffff;fill-opacity:1;fill-rule:nonzero;stroke:none" /><path
             d="M 4302.2,6698.54 C 4295.79,6678.34 4290.51,6657.82 4286.36,6637.05 L 4651.67,6637.05 C 4647.52,6657.82 4642.23,6678.34 4635.83,6698.54 C 4612.76,6771.21 4545.28,6820.59 4469.02,6820.59 C 4392.76,6820.59 4325.29,6771.21 4302.2,6698.54 z"
             id="path105"
             style="fill:none;stroke:#ffffff;stroke-width:5.07372999;stroke-linecap:round;stroke-linejoin:round;stroke-miterlimit:500;stroke-dasharray:none;stroke-opacity:1" /></g></g></g></g></svg>