<?xml version="1.0" encoding="UTF-8" standalone="no"?>
<!-- Created with Inkscape (http://www.inkscape.org/) -->

<svg
   xmlns:dc="http://purl.org/dc/elements/1.1/"
   xmlns:cc="http://creativecommons.org/ns#"
   xmlns:rdf="http://www.w3.org/1999/02/22-rdf-syntax-ns#"
   xmlns:svg="http://www.w3.org/2000/svg"
   xmlns="http://www.w3.org/2000/svg"
   xmlns:sodipodi="http://sodipodi.sourceforge.net/DTD/sodipodi-0.dtd"
   xmlns:inkscape="http://www.inkscape.org/namespaces/inkscape"
   width="600"
   height="900"
   id="svg2"
   version="1.1"
   inkscape:version="0.48.4 r9939"
   sodipodi:docname="5.16.svg.2014_02_04_21_38_30.2.svg">
  <title
     id="title3004">5.21 Жилая зона</title>
  <defs
     id="defs4" />
  <sodipodi:namedview
     id="base"
     pagecolor="#ffffff"
     bordercolor="#666666"
     borderopacity="1.0"
     inkscape:pageopacity="0.0"
     inkscape:pageshadow="2"
     inkscape:zoom="1"
     inkscape:cx="339.11865"
     inkscape:cy="470.52105"
     inkscape:document-units="px"
     inkscape:current-layer="layer1"
     showgrid="false"
     inkscape:window-width="1920"
     inkscape:window-height="1024"
     inkscape:window-x="-4"
     inkscape:window-y="-4"
     inkscape:window-maximized="1" />
  <metadata
     id="metadata7">
    <rdf:RDF>
      <cc:Work
         rdf:about="">
        <dc:format>image/svg+xml</dc:format>
        <dc:type
           rdf:resource="http://purl.org/dc/dcmitype/StillImage" />
        <dc:title>5.21 Жилая зона</dc:title>
        <cc:license
           rdf:resource="http://creativecommons.org/licenses/by-sa/3.0/" />
        <dc:description>ГОСТ Р 52290-2004
Размеры и пропорции по типоразмеру I</dc:description>
      </cc:Work>
      <cc:License
         rdf:about="http://creativecommons.org/licenses/by-sa/3.0/">
        <cc:permits
           rdf:resource="http://creativecommons.org/ns#Reproduction" />
        <cc:permits
           rdf:resource="http://creativecommons.org/ns#Distribution" />
        <cc:requires
           rdf:resource="http://creativecommons.org/ns#Notice" />
        <cc:requires
           rdf:resource="http://creativecommons.org/ns#Attribution" />
        <cc:permits
           rdf:resource="http://creativecommons.org/ns#DerivativeWorks" />
        <cc:requires
           rdf:resource="http://creativecommons.org/ns#ShareAlike" />
      </cc:License>
    </rdf:RDF>
  </metadata>
  <g
     inkscape:label="Layer 1"
     inkscape:groupmode="layer"
     id="layer1"
     transform="translate(0,-152.36218)">
    <rect
       style="color:#000000;fill:#ffffff;fill-opacity:1;fill-rule:nonzero;stroke:none;stroke-width:4;marker:none;visibility:visible;display:inline;overflow:visible;enable-background:accumulate;opacity:1"
       id="rect3256"
       width="600"
       height="900"
       x="0"
       y="152.36218"
       rx="45"
       ry="45" />
    <rect
       ry="44"
       rx="44"
       y="153.36218"
       x="1"
       height="898"
       width="598"
       id="rect3041"
       style="color:#000000;fill:none;stroke:#000000;stroke-width:2;stroke-miterlimit:4;stroke-opacity:1;stroke-dasharray:none;marker:none;visibility:visible;display:inline;overflow:visible;enable-background:accumulate;opacity:1" />
    <path
       id="path9094"
       style="opacity:1;fill:#0d69e1;fill-opacity:1;stroke:none"
       d="m 412.49995,172.36218 0,336.25003 167.50005,0 0,-56.25 -26.87505,0 0,-75 26.87505,0 0,-37.5 -26.87505,0 0,-75 26.87505,0 0,-37.5 -26.87505,0 0,-55.00003 -46.875,0 0,55.00003 -56.25,0 0,-55.00003 z m 37.5,92.50003 56.25,0 0,75 -56.25,0 z m 0,112.5 56.25,0 0,75 -56.25,0 z M 45,172.36218 c -13.85,0 -25,11.15 -25,25 l 0,810.00002 c 0,13.85 11.15,25 25,25 l 510,0 c 13.85,0 25,-11.15 25,-25 l 0,-480.00002 -186.25,0 0,-355 -348.75,0 z m 115.46875,86.875 55.15625,0 55.15625,0 c 4.3628,0 9.0151,3.31303 10.4375,7.4375 l 5.28125,15.3125 10.9375,31.6875 c 0.009,0.029 -0.01,0.0646 0,0.0937 L 300,321.11218 c 6.2325,0 11.25,5.0175 11.25,11.25 l 0,45 c 0,6.2325 -5.0175,11.25 -11.25,11.25 l -168.75,0 c -6.2325,0 -11.25,-5.0175 -11.25,-11.25 l 0,-45 c 0,-6.2325 5.0175,-11.25 11.25,-11.25 l 2.5625,-7.34375 c 0.01,-0.029 -0.01,-0.0645 0,-0.0937 l 10.9375,-31.6875 5.28125,-15.3125 c 1.4222,-4.12442 6.0748,-7.4375 10.4375,-7.4375 z m 3.40625,11.25 c -2.1813,0 -4.50765,1.65653 -5.21875,3.71875 L 142.5,321.11218 l 73.125,0 73.125,0 -16.1875,-46.90625 c -0.7111,-2.06222 -3.0062,-3.71875 -5.1875,-3.71875 l -51.75,0 -51.75,0 z m 119.25,61.3125 c -9.3198,0 -16.875,7.55519 -16.875,16.875 0,9.31981 7.5552,16.875 16.875,16.875 9.3198,0 16.875,-7.55519 16.875,-16.875 0,-9.31981 -7.5552,-16.875 -16.875,-16.875 z m -135,0.5625 c -9.3198,0 -16.875,7.55519 -16.875,16.875 0,9.31981 7.5552,16.875 16.875,16.875 9.3198,0 16.875,-7.55519 16.875,-16.875 0,-9.31981 -7.5552,-16.875 -16.875,-16.875 z m -16.875,61.875 33.75,0 0,22.5 c 0,9.3198 -7.5552,16.875 -16.875,16.875 -9.3198,0 -16.875,-7.5552 -16.875,-16.875 l 0,-22.5 z m 135,0 33.75,0 0,22.5 c 0,9.3198 -7.5552,16.875 -16.875,16.875 -9.3198,0 -16.875,-7.5552 -16.875,-16.875 l 0,-22.5 z m -95.71875,139.6875 c 8.2037,0 40.28125,7.41317 40.28125,33.53125 0,10.61926 -6.84925,27.78125 -21.78125,27.78125 -10.602,0 -44.34375,-16.64715 -44.34375,-37.5 0,-18.14836 16.15445,-23.8125 25.84375,-23.8125 z m -6.4375,65.90625 c 3.0452,0 6.0838,0.76838 8.8125,2.34375 l 22.75,13.125 c 2.7287,1.57537 4.40625,4.50542 4.40625,7.65625 l 0,93.78125 43.8125,43.84375 c 1.1888,1.14797 2.0377,2.584 2.4375,4.1875 l 24.5,98 c 2.2444,8.97797 -3.2094,18.09918 -12.1875,20.34375 -8.9781,2.24447 -18.09935,-3.24078 -20.34375,-12.21875 l -19.90625,-79.71875 -71.71875,-71.75 c -1.654,-1.65394 -2.59375,-3.87978 -2.59375,-6.21875 l 0,-74 -27.34375,15.78125 0,56.65625 c 0,7.30603 -5.91275,13.21875 -13.21875,13.21875 -7.306095,0 -13.21875,-5.91272 -13.21875,-13.21875 l 0,-61.75 c 0,-6.30157 3.3552,-12.09918 8.8125,-15.25 l 56.1875,-32.46875 c 2.7287,-1.57537 5.7673,-2.34384 8.8125,-2.34375 z m 45.59375,61.25 49.5625,49.59375 c 2.3938,2.39409 3.875,5.69078 3.875,9.34375 0,7.30612 -5.91265,13.21875 -13.21875,13.21875 -3.6529,0 -6.94975,-1.48118 -9.34375,-3.875 l -30.875,-30.84375 0,-37.4375 z m -60.53125,73.34375 24.53125,24.53125 -67.15625,116.28125 -0.1875,-0.125 c -2.8817,5.06794 -8.34695,8.5 -14.59375,8.5 -9.2542,0 -16.75,-7.49575 -16.75,-16.75 0,-4.09097 1.47085,-7.84046 3.90625,-10.75 l 70.25,-121.6875 z m 344.90625,10.1875 c 0.26903,-0.0109 0.54237,-0.007 0.8125,0 1.96459,0.051 3.95963,0.57324 5.78125,1.625 5.8291,3.36563 7.8029,10.82781 4.4375,16.65625 l -36.15625,62.625 c -2.0096,3.48094 -2.0096,7.76906 0,11.25 l 26.40625,45.6875 c 3.1066,5.38125 1.2558,12.26813 -4.125,15.375 l -41.28125,23.84375 -38.375,66.46875 c -3.8832,6.72656 -12.49275,9.03938 -19.21875,5.15625 -6.726,-3.88312 -9.03945,-12.49219 -5.15625,-19.21875 l 42.5,-73.625 c 0.9875,-1.71 2.4148,-3.13781 4.125,-4.125 l 16.4375,-9.46875 -19.1875,-33.21875 c -2.0096,-3.48094 -2.0096,-7.76906 0,-11.25 L 484,750.70593 c 2.16917,-3.75661 6.02701,-5.92993 10.0625,-6.09375 z m -63.9375,22.46875 c 12.4216,0 18.375,9.52594 18.375,21.375 0,6.17531 -7.25355,37.96875 -25.21875,37.96875 -11.7145,0 -23.90625,-11.22562 -23.90625,-25.875 0,-16.53562 17.979,-33.46875 30.75,-33.46875 z m -51.59375,70.6875 c 4.32209,-0.11239 8.56122,2.08606 10.875,6.09375 l 14.25,24.6875 20.5,-11.84375 12.1875,21.09375 -31.875,18.40625 c -5.3808,3.10687 -12.2684,1.25531 -15.375,-4.125 l -20.8125,-36.03125 c -3.3655,-5.82937 -1.36045,-13.29063 4.46875,-16.65625 1.82162,-1.05176 3.81666,-1.57391 5.78125,-1.625 z M 494,905.95593 l 19.03125,32.96875 25.09375,0 c 7.7665,0 14.0625,6.29625 14.0625,14.0625 0,7.76719 -6.296,14.0625 -14.0625,14.0625 l -34.84375,0 c -4.0192,0 -7.7404,-2.14406 -9.75,-5.625 L 469.65625,920.01843 494,905.95593 z m -175.25,32.96875 c 15.53301,0 28.125,12.59199 28.125,28.125 0,15.53301 -12.59199,28.125 -28.125,28.125 -15.53301,0 -28.125,-12.59199 -28.125,-28.125 0,-15.53301 12.59199,-28.125 28.125,-28.125 z" />
  </g>
</svg>
