<?xml version="1.0" encoding="UTF-8" standalone="no"?>
<!-- Created with Inkscape (http://www.inkscape.org/) -->

<svg
   xmlns:dc="http://purl.org/dc/elements/1.1/"
   xmlns:cc="http://creativecommons.org/ns#"
   xmlns:rdf="http://www.w3.org/1999/02/22-rdf-syntax-ns#"
   xmlns:svg="http://www.w3.org/2000/svg"
   xmlns="http://www.w3.org/2000/svg"
   xmlns:sodipodi="http://sodipodi.sourceforge.net/DTD/sodipodi-0.dtd"
   xmlns:inkscape="http://www.inkscape.org/namespaces/inkscape"
   width="706"
   height="506"
   id="svg2"
   sodipodi:version="0.32"
   inkscape:version="0.48.4 r9939"
   version="1.0"
   sodipodi:docname="AJAX.svg"
   inkscape:output_extension="org.inkscape.output.svg.inkscape">
  <defs
     id="defs4">
    <inkscape:perspective
       sodipodi:type="inkscape:persp3d"
       inkscape:vp_x="0 : 300.5 : 1"
       inkscape:vp_y="0 : 1000 : 0"
       inkscape:vp_z="601 : 300.5 : 1"
       inkscape:persp3d-origin="300.5 : 200.33333 : 1"
       id="perspective3380" />
    <inkscape:perspective
       id="perspective3990"
       inkscape:persp3d-origin="375 : 250 : 1"
       inkscape:vp_z="750 : 375 : 1"
       inkscape:vp_y="0 : 1000 : 0"
       inkscape:vp_x="0 : 375 : 1"
       sodipodi:type="inkscape:persp3d" />
  </defs>
  <sodipodi:namedview
     id="base"
     pagecolor="#ffffff"
     bordercolor="#666666"
     borderopacity="1.0"
     gridtolerance="10000"
     guidetolerance="10"
     objecttolerance="10"
     inkscape:pageopacity="0.0"
     inkscape:pageshadow="2"
     inkscape:zoom="0.5786465"
     inkscape:cx="527.54783"
     inkscape:cy="83.693418"
     inkscape:document-units="px"
     inkscape:current-layer="layer1"
     width="601px"
     height="601px"
     inkscape:window-width="1280"
     inkscape:window-height="1001"
     inkscape:window-x="-8"
     inkscape:window-y="-8"
     showgrid="false"
     fit-margin-top="0"
     fit-margin-left="0"
     fit-margin-right="0"
     fit-margin-bottom="0"
     inkscape:window-maximized="1"
     showguides="true"
     inkscape:guide-bbox="true" />
  <metadata
     id="metadata7">
    <rdf:RDF>
      <cc:Work
         rdf:about="">
        <dc:format>image/svg+xml</dc:format>
        <dc:type
           rdf:resource="http://purl.org/dc/dcmitype/StillImage" />
        <dc:title />
      </cc:Work>
    </rdf:RDF>
  </metadata>
  <g
     inkscape:label="Layer 1"
     inkscape:groupmode="layer"
     id="layer1"
     transform="translate(2600.3037,3155.198)">
    <rect
       style="color:#000000;fill:#000000;fill-opacity:1;fill-rule:nonzero;stroke:none;stroke-width:0.8735441;marker:none;visibility:visible;display:inline;overflow:visible"
       id="rect3653"
       width="0"
       height="27.202072"
       x="578.73834"
       y="298.1684"
       rx="249.48199"
       ry="27.202072" />
    <path
       sodipodi:nodetypes="ccccc"
       id="path3818"
       d="m -2600.3037,-3155.198 706,0 0,506 -706,0 z"
       style="fill:#000000;fill-opacity:1;fill-rule:nonzero;stroke:none"
       inkscape:connector-curvature="0" />
    <path
       sodipodi:nodetypes="ccccc"
       id="path3820"
       d="m -2597.3037,-3152.198 700.0003,0 0,500 -700.0003,0 z"
       style="fill:#ffffff;fill-opacity:1;fill-rule:nonzero;stroke:none"
       inkscape:connector-curvature="0" />
    <path
       sodipodi:nodetypes="scsscsscsscss"
       inkscape:connector-curvature="0"
       id="path3822"
       d="m -2568.1474,-3152.198 c -7.7361,0 -15.1555,3.0622 -20.625,8.5312 -5.4695,5.4705 -8.5313,12.8894 -8.5313,20.625 l 0,441.6875 c 0,7.7356 3.0618,15.1545 8.5313,20.625 5.4695,5.4691 12.8889,8.5313 20.625,8.5313 l 641.6878,0 c 7.7361,0 15.1555,-3.0622 20.625,-8.5313 5.4695,-5.4705 8.5312,-12.8894 8.5312,-20.625 l 0,-441.6875 c 0,-7.7356 -3.0617,-15.1545 -8.5312,-20.625 -5.4695,-5.469 -12.8889,-8.5312 -20.625,-8.5312 z"
       style="fill:#0c479d;fill-opacity:1;fill-rule:nonzero;stroke:none" />
    <path
       sodipodi:nodetypes="scsscsscsscss"
       inkscape:connector-curvature="0"
       id="path3824"
       d="m -2580.3037,-2685.5386 c 0,4.336 1.7169,8.4922 4.7826,11.558 3.0673,3.0658 7.2221,4.7826 11.5581,4.7826 l 633.319,0 c 4.3358,0 8.4907,-1.7168 11.558,-4.7826 3.0657,-3.0658 4.7826,-7.222 4.7826,-11.558 l 0,-433.3187 c 0,-4.3361 -1.7169,-8.4923 -4.7826,-11.5581 -3.0673,-3.0658 -7.2222,-4.7826 -11.558,-4.7826 l -633.319,0 c -4.336,0 -8.4908,1.7168 -11.5581,4.7826 -3.0657,3.0658 -4.7826,7.222 -4.7826,11.5581 z"
       style="fill:#ffffff;fill-opacity:1;fill-rule:nonzero;stroke:none" />
    <path
       id="path3826"
       d="m -2362.3022,-3047.1981 0,60 14.9984,0 0,-10.0012 29.9992,-95.0003 30.0002,95.0003 0,10.0012 15.0002,0 0,-43.0018 70,-31.9997 70.0017,31.9997 0,28.0018 144.9988,0 0,260.0001 -520,0 0,-260.0001 25.001,0 0,-45 15,-15.0015 29.9998,0 0,-14.9999 29.9986,0 0,14.9999 30.002,0 15.0001,15.0015 z"
       style="fill:#0c479d;fill-opacity:1;fill-rule:nonzero;stroke:none"
       inkscape:connector-curvature="0" />
    <path
       id="path3828"
       d="m -2245.3016,-2831.5927 c 1.4181,0.5962 2.9826,0.7708 4.4979,0.501 4.0163,-0.9384 8.0168,-1.9403 12.0015,-3.0005 -1.8645,8.5355 -2.7023,17.265 -2.5012,25.9998 -3.6637,2.8328 -7.0151,6.0501 -9.996,9.5974 -0.6774,0.8537 -1.4164,1.6545 -2.2136,2.397 -0.2223,0.1924 -0.4464,0.3829 -0.6703,0.5734 -0.051,0.042 -0.1044,0.086 -0.1606,0.1256 -0.5838,0.4073 -1.1889,0.7848 -1.8097,1.1376 -1.3811,0.6632 -2.4554,1.8274 -3.0074,3.2544 -0.086,0.2082 -0.1411,0.4286 -0.1623,0.6544 l 0,0 c -0.015,0.1747 -0.035,0.3492 -0.062,0.5221 -0.073,0.5169 -0.1923,1.0249 -0.3546,1.5223 -1.0019,2.7216 -2.4111,5.274 -4.1821,7.5706 -1.9403,2.4147 -4.2634,4.4873 -6.881,6.1418 -2.2084,1.4799 -4.8488,2.1819 -7.5,2.0003 -1.06,-0.021 -2.1202,-0.027 -3.1785,-0.014 -0.4392,0 -0.8449,0.2415 -1.0478,0.6314 -0.2011,0.3898 -0.1693,0.8625 0.086,1.2206 0.085,0.1115 0.1923,0.2047 0.3158,0.2734 0.018,0.014 0.037,0.025 0.056,0.037 2.6264,1.9844 5.3376,3.8559 8.1227,5.6092 1.0018,0.6597 2.2048,0.9367 3.392,0.7832 0.194,-0.051 0.3739,-0.1355 0.5362,-0.2505 0.9525,-0.7072 1.8591,-1.4728 2.7164,-2.2912 1.7162,0.9542 3.5718,1.6298 5.4998,2.0003 1.6703,-2.8982 3.6865,-5.5846 5.9989,-7.9994 3.4819,-4.4239 6.3429,-9.3028 8.5019,-14.5009 l 8.9994,-3.4995 c 4.1345,-1.905 8.144,-4.0781 11.9999,-6.5 2.2719,1.4341 4.2985,3.2227 5.9989,5.3005 4.4786,5.3004 10.6574,8.8846 17.4836,10.1424 0.2752,0.037 0.5487,0.063 0.8255,0.083 6.3147,0.3298 12.5765,1.3282 18.6849,2.9721 0.2046,-1.0372 0.5433,-2.0461 1.0054,-2.9986 2.7059,0.979 4.8561,3.0727 5.9073,5.7486 0.062,0.1869 0.18,0.3457 0.337,0.4621 0.3422,0.2364 0.7691,0.3192 1.1764,0.2293 0.4076,-0.09 0.7585,-0.3457 0.9702,-0.7055 0.078,-0.12 0.1143,-0.2665 0.096,-0.4093 -0.1284,-1.4463 -0.2909,-2.8875 -0.485,-4.3233 -0.2963,-1.5081 -0.6314,-3.0074 -0.9983,-4.5015 l -0.2963,-1.591 c -0.048,-0.3791 -0.1002,-0.7601 -0.1536,-1.1395 -0.1058,-0.5379 -0.3175,-1.0477 -0.6226,-1.5028 -0.5009,-0.5221 -1.2048,-0.8025 -1.9297,-0.7655 -3.3197,0.4163 -6.6781,0.4163 -9.9978,0 -4.3057,-1.7286 -9.0788,-1.905 -13.5007,-0.501 -2.362,-4.5137 -5.036,-8.8582 -7.9993,-12.9998 -0.5556,-0.8942 -0.7355,-1.9737 -0.5027,-3.0003 0.2681,-1.6228 0.1976,-3.2827 -0.2046,-4.8772 -0.1129,-0.4391 -0.3193,-0.8502 -0.6015,-1.2065 -1.4358,-1.942 -2.8345,-3.9158 -4.1927,-5.9161 -3.1451,-6.0573 -5.0148,-12.693 -5.4998,-19.4998 3.6741,0.2011 7.3589,0.035 11.0013,-0.4992 0.956,-0.1835 1.9315,0.2064 2.4995,0.9983 2.9932,3.7096 6.9814,6.4841 11.4987,7.9993 1.7638,0.7249 3.7006,0.9278 5.5757,0.5873 0.2928,-0.046 0.5661,-0.1675 0.7937,-0.3563 0.822,-0.6279 1.5398,-1.381 2.1308,-2.2295 0.7355,-0.9596 1.3528,-2.0055 1.838,-3.1132 0.103,-0.254 0.044,-0.5451 -0.15,-0.7373 -0.4039,-0.3352 -0.9542,-0.4304 -1.4481,-0.2594 -0.1799,0.09 -0.3511,0.1959 -0.5115,0.3158 -1.3142,0.949 -2.9175,1.4111 -4.5351,1.3088 -0.1213,-0.014 -0.2398,-0.034 -0.3509,-0.079 -0.508,-0.217 -0.9631,-0.5345 -1.3406,-0.9349 l -9.0011,-8.5002 c -2.339,-1.8062 -5.0871,-3.0074 -7.9992,-3.5012 l -15.501,-2.9986 c -0.2841,-1.3194 -0.2841,-2.6812 0,-4.0005 3.9052,0.1905 7.7117,-1.2595 10.5003,-4.0005 l -1.3387,-0.4464 c -0.1214,-0.062 -0.2258,-0.1552 -0.3017,-0.2681 -0.1905,-0.3897 -0.1587,-0.8519 0.083,-1.21 0.041,-0.057 0.078,-0.1143 0.1157,-0.171 1.3511,-1.9438 2.3459,-4.1117 2.9404,-6.4029 -1.801,1.2135 -4.2422,0.7707 -5.4981,-1.0019 -1.2293,-1.801 -2.2154,-3.7554 -2.9368,-5.8139 -0.051,-0.1465 -0.1143,-0.2893 -0.1923,-0.4233 -0.7373,-1.3107 -1.9403,-2.2966 -3.3726,-2.7623 -4.4502,-1.4447 -9.2939,-1.0971 -13.4919,0.9666 -1.3565,0.8237 -2.4095,2.0655 -3.0075,3.535 -0.508,1.0407 -0.8907,2.1395 -1.1447,3.2702 -0.3211,2.0214 -0.2559,4.0852 0.1886,6.0801 0.5856,2.8452 1.5823,5.5898 2.9563,8.1491 0.6862,1.27 1.8909,2.182 3.2985,2.4977 0.3034,0.021 0.598,0.1086 0.8626,0.2593 0.2328,0.1464 0.3827,0.3916 0.4109,0.6633 0.075,0.7408 -0.1298,1.4816 -0.5715,2.0795 -1.7886,2.1343 -4.004,3.87 -6.5017,5.0995 -2.3495,0.8942 -4.6602,1.8873 -6.9267,2.9756 -0.4551,0.2593 -0.9014,0.5327 -1.3406,0.8184 -0.7744,0.5398 -1.7356,0.7356 -2.6564,0.5381 -1.4499,-0.4111 -2.8805,-0.8909 -4.2827,-1.4377 -1.6846,-0.6561 -3.2897,-1.4922 -4.7942,-2.4941 -0.4957,-0.1887 -0.9525,-0.4727 -1.3371,-0.8396 -0.1058,-0.1129 -0.1905,-0.2434 -0.2452,-0.3881 -0.1115,-0.2733 -0.2505,-0.5308 -0.4163,-0.7725 -0.4638,-0.7602 -1.0901,-1.4076 -1.8344,-1.8962 -0.1002,-0.056 -0.2082,-0.1001 -0.3175,-0.1284 -0.8432,-0.1535 -1.644,-0.4868 -2.3477,-0.9755 -0.6545,-0.4991 -1.4235,-0.8325 -2.2384,-0.963 -0.1729,-0.027 -0.3528,-0.028 -0.5292,0 -0.956,0.1185 -1.9015,0.3069 -2.831,0.5609 -0.2928,0.072 -0.582,0.1517 -0.8732,0.2382 -0.2751,0.083 -0.4797,0.3192 -0.5221,0.6032 0,0.031 0,0.062 0,0.095 0.2276,1.9508 0.8291,3.8417 1.771,5.5703 0.157,0.2681 0.3633,0.508 0.6068,0.7037 0.8202,0.5769 1.8256,0.8255 2.8186,0.6968 1.323,-0.1834 2.6653,0.1711 3.7272,0.9843 1.1959,0.8378 2.3354,1.7603 3.4025,2.7604 2.7199,2.4095 5.8173,4.3551 9.1722,5.7556 z"
       style="fill:#ffffff;fill-rule:nonzero;stroke:none"
       inkscape:connector-curvature="0" />
    <path
       id="path3830"
       d="m -2416.9492,-2913.3649 c 0.6225,-0.1157 1.2488,-0.2027 1.8784,-0.2575 0.7109,0 1.413,-0.1411 2.0727,-0.4039 0.1284,-0.051 0.2486,-0.1086 0.365,-0.1763 0.3105,-0.1658 0.5221,-0.4692 0.5715,-0.8168 0.1186,-0.8008 0.3316,-1.5857 0.6404,-2.3354 0.2239,-0.8608 0.4885,-1.7109 0.7919,-2.5487 0.1606,-0.6439 0.3158,-1.2877 0.4621,-1.9351 0.1186,-0.4621 0.1242,-0.9454 0.014,-1.4093 -0.1368,-0.5698 -0.1728,-1.159 -0.1114,-1.7411 -0.045,-1.0459 0.1213,-2.0936 0.4922,-3.0744 0.1675,-0.4621 0.3175,-0.9278 0.4497,-1.4005 0.068,-0.2523 0.1143,-0.5098 0.1429,-0.7673 0.1835,-2.346 -0.5997,-4.6673 -2.1679,-6.4223 -2.2789,-2.5506 -5.4133,-4.1787 -8.8088,-4.5809 -3.4318,-0.8008 -7.0217,0.4093 -9.2662,3.1239 -1.7399,2.2367 -2.7423,4.9583 -2.8716,7.7911 -0.2806,2.4712 -0.014,4.976 0.7977,7.3291 1.0697,2.3283 1.664,4.8453 1.7484,7.4048 0.3495,3.4431 -1.4969,6.7345 -4.6164,8.2267 -3.3574,1.882 -6.4838,4.1487 -9.3139,6.7557 -3.9171,4.512 -7.543,9.271 -10.8555,14.2469 -2.4407,3.0338 -4.5956,6.29 -6.4371,9.7208 -2.2289,9.5515 -4.1669,19.17 -5.8084,28.8378 0.956,0.4675 1.7691,1.1818 2.3529,2.0691 -0.014,0.739 -0.4046,1.4182 -1.0352,1.8009 -0.4049,0.1284 -0.844,0.079 -1.2127,-0.1327 -0.073,-0.039 -0.1397,-0.093 -0.1946,-0.1552 -0.2704,-0.254 -0.658,-0.3422 -1.0112,-0.2293 -0.1228,0.044 -0.2307,0.1214 -0.3083,0.2241 -0.1671,0.2434 -0.1913,0.5591 -0.062,0.8237 1.2213,3.0797 3.3037,5.745 5.9994,7.6729 0.6098,0.3757 1.3746,0.388 1.9966,0.037 0.014,0 0.024,-0.016 0.034,-0.024 0.6959,-0.6014 1.3988,-1.1941 2.1102,-1.7762 0.3289,-0.2469 0.6407,-0.515 0.9335,-0.8026 0.3583,-0.3846 0.6287,-0.8396 0.7959,-1.3371 0.4943,-1.5098 0.9423,-3.0338 1.3401,-4.5701 l 2.0258,-0.2206 c 0.5029,-8.0715 1.3884,-16.1148 2.6528,-24.1017 2.7955,-4.2405 5.9616,-8.2269 9.4548,-11.9151 l 3.428,18.9584 -4.718,21.7381 4.7352,0.7919 2.8629,5.3782 c -0.9698,6.3587 -1.9809,12.7087 -3.0333,19.0517 -0.6752,2.7288 -2.4014,5.0819 -4.8026,6.5459 -3.4967,1.6439 -6.6456,3.9457 -9.2707,6.7821 -4.954,6.2265 -10.0355,12.3525 -15.2376,18.3726 0.1792,0.3563 0.3926,0.6968 0.6322,1.0178 0.027,0.049 0.052,0.1002 0.069,0.1534 0.058,0.3457 -0.047,0.6985 -0.2876,0.9544 -1.0045,1.314 -2.0722,2.5804 -3.2007,3.7888 -0.069,0.1256 -0.1157,0.2575 -0.1413,0.3968 -0.024,0.1641 -0.017,0.3316 0.021,0.4957 0.023,0.069 0.051,0.1355 0.085,0.2028 0.1227,0.1658 0.2516,0.3281 0.3859,0.4851 0.1808,0.2117 0.3529,0.4269 0.522,0.6456 3.0023,3.9493 6.2614,7.6977 9.7564,11.2166 1.5452,0.1799 3.0972,0.2857 4.6544,0.314 2.2977,0.024 4.575,-0.4375 6.6833,-1.3547 0.3808,-0.2628 0.5685,-0.7284 0.4738,-1.1818 -0.095,-0.4533 -0.4529,-0.806 -0.9079,-0.8925 -1.173,-0.3211 -2.2978,-0.7938 -3.345,-1.4128 -0.982,-0.5594 -1.5126,-1.6706 -1.3315,-2.7854 1.1712,-0.3756 2.3822,-0.6155 3.6104,-0.7108 0.6614,-2.63 1.5916,-5.1841 2.7731,-7.6235 0.5979,-1.3299 1.392,-2.5665 2.3531,-3.6653 1.7674,-1.9739 3.6724,-3.8189 5.7034,-5.521 2.2548,-2.1943 4.2582,-4.6338 5.972,-7.2726 1.4916,-1.889 3.2195,-3.5824 5.1402,-5.0358 2.0981,-1.6281 3.6293,-3.8789 4.37,-6.4311 1.4752,-3.9406 2.4788,-8.0398 2.9957,-12.215 1.8502,1.4534 3.5383,3.1044 5.0306,4.9248 1.0936,1.3405 2.0972,2.7499 3.0109,4.221 0.6191,1.24 0.9666,2.6 1.023,3.9864 0.021,1.1482 0.054,2.2966 0.099,3.4448 0.092,1.4393 0.1355,2.8822 0.1355,4.325 0.3386,3.0252 1.173,5.9726 2.4783,8.7225 0.7072,1.5064 1.3493,3.041 1.9243,4.6038 0.4358,1.3846 0.8855,2.7657 1.3424,4.1416 0.028,0.097 0.055,0.1922 0.08,0.2874 1.9138,5.7592 3.8171,11.5236 5.7097,17.2897 0.963,-0.028 1.9209,-0.1463 2.8628,-0.3492 -0.217,1.1307 -0.3017,2.2789 -0.2523,3.4273 0,0.6085 0.049,1.2171 0.1482,1.8168 0.1185,0.8378 0.538,1.6033 1.1836,2.1501 0.3599,0.2841 0.8326,0.381 1.2752,0.2716 2.9704,-0.3527 5.8561,-1.217 8.5302,-2.5522 3.877,-1.9386 7.8158,-3.7465 11.8129,-5.4257 1.0812,-0.6404 2.1237,-1.3424 3.1203,-2.1061 0.021,-0.02 0.039,-0.04 0.056,-0.064 0.194,-0.3017 0.1623,-0.6985 -0.076,-0.9685 -0.3298,-0.3422 -0.7514,-0.5837 -1.2152,-0.6949 -0.3617,-0.065 -0.7321,-0.037 -1.0779,0.08 -3.8452,0.7302 -7.8263,0.1326 -11.2871,-1.6987 0.926,-0.9437 1.9368,-1.7956 3.0233,-2.5489 -3.4784,-9.9288 -7.3431,-19.7184 -11.5781,-29.3475 -1.0496,-2.3512 -1.6529,-4.8771 -1.778,-7.4471 0,-2.6776 -0.8785,-5.2793 -2.4942,-7.4136 -4.5703,-7.9411 -9.3504,-15.7586 -14.3351,-23.4456 0.4515,-7.3467 1.0618,-14.6826 1.8362,-22.0011 6.5987,5.0412 13.4955,9.6838 20.6498,13.9013 0.8996,-0.7321 1.7445,-1.5258 2.5312,-2.3777 1.6915,0.5696 3.3531,1.2258 4.9742,1.9702 0.5891,0.3457 1.2982,0.4198 1.9455,0.2046 1.778,-0.478 3.542,-1.0071 5.29,-1.584 0.3881,-0.1326 0.7515,-0.3281 1.076,-0.5802 0.2451,-0.1959 0.3933,-0.4904 0.4022,-0.8044 0.017,-0.8273 -0.1016,-1.651 -0.3563,-2.4395 -0.2999,-0.9366 -0.5751,-1.882 -0.8274,-2.8345 -0.051,-0.2646 -0.1411,-0.5169 -0.2645,-0.7568 -0.3369,-0.4868 -0.8484,-0.8236 -1.4305,-0.9384 -0.344,-0.072 -0.6968,-0.103 -1.0477,-0.085 -1.7852,-0.049 -3.565,-0.1729 -5.3395,-0.3686 0.061,-0.5927 0.058,-1.1924 0,-1.7851 -7.9815,-5.5016 -16.1007,-10.8038 -24.3451,-15.898 -0.9913,-12.6083 -5.2264,-24.7455 -12.2925,-35.2336 0.3457,-0.8008 0.8396,-1.5258 1.457,-2.1397 z"
       style="fill:#ffffff;fill-rule:nonzero;stroke:none"
       inkscape:connector-curvature="0" />
    <path
       id="path3832"
       d="m -2280.3273,-2888.3318 -28.5009,0 -28.4974,0 0,8.9994 c 0,1.0618 -0.4233,2.0778 -1.1729,2.8292 -0.7497,0.7479 -1.7674,1.1713 -2.8293,1.1713 l -4.9989,0 c -1.0601,0 -2.0796,-0.4234 -2.8292,-1.1713 -0.7497,-0.7514 -1.1696,-1.7674 -1.1696,-2.8292 l 0,-8.9994 -6.0007,0 0,-4.4996 -2.5012,0 c -1.755,-2.1926 -1.755,-5.3093 0,-7.5019 l 2.5012,0 0,-13.4989 c -0.024,-1.0337 0,-2.0691 0.085,-3.1009 0.5027,-4.3975 2.6088,-8.4562 5.916,-11.4002 1.6599,-7.8792 3.7536,-15.6633 6.2672,-23.3132 0.9031,-2.7465 3.2155,-4.7926 6.0518,-5.35 9.6097,-1.8961 19.3835,-2.845 29.1783,-2.838 9.7967,-0.014 19.5721,0.9419 29.1818,2.838 2.8346,0.5574 5.1488,2.6035 6.0519,5.35 2.5119,7.6499 4.6074,15.434 6.2672,23.3132 3.3073,2.944 5.4116,7.0027 5.916,11.4002 0.082,1.0318 0.1073,2.0672 0.085,3.1009 l 0,13.4989 2.5012,0 c 1.7533,2.1926 1.7533,5.3093 0,7.5019 l -2.5012,0 0,4.4996 -6.0007,0 0,8.9994 c 0,1.0618 -0.4198,2.0778 -1.1713,2.8292 -0.7495,0.7479 -1.7674,1.1713 -2.8274,1.1713 l -5.0008,0 c -1.0619,0 -2.0778,-0.4234 -2.8293,-1.1713 -0.7495,-0.7514 -1.1712,-1.7674 -1.1712,-2.8292 l 0,-8.9994 z"
       style="fill:#ffffff;fill-rule:nonzero;stroke:none"
       inkscape:connector-curvature="0" />
    <path
       id="path3834"
       d="m -2194.8191,-2908.8863 c 29.3865,60.4608 73.5382,112.5397 128.3723,151.4246 l 28.688,0 c -62.2389,-36.188 -113.5592,-88.5014 -148.5442,-151.4246 l -8.5161,0 z"
       style="fill:#ffffff;fill-rule:nonzero;stroke:none"
       inkscape:connector-curvature="0" />
    <path
       id="path3836"
       d="m -2138.8845,-2929.2522 6.9974,-4.0412 0,94.437 118.0024,0 0,-94.437 6.9992,4.0412 0,-8.0821 -65.9994,-38.1035 -65.9996,38.1035 0,8.0821 z"
       style="fill:#ffffff;fill-rule:nonzero;stroke:none"
       inkscape:connector-curvature="0" />
    <path
       id="path3838"
       d="m -2331.8258,-2901.3333 22.9976,0 23.0011,0 c 2.5647,-4.3427 1.4941,-9.9166 -2.4993,-12.9999 l -20.5018,0 -20.4981,0 c -3.9935,3.0833 -5.0642,8.6572 -2.4995,12.9999 z"
       style="fill:#0c479d;fill-opacity:1;fill-rule:nonzero;stroke:none"
       inkscape:connector-curvature="0" />
    <path
       id="path3840"
       d="m -2339.3259,-2914.3332 c 0,-3.5895 -2.9104,-6.4981 -6.5016,-6.4981 -3.5895,0 -6.4982,2.9086 -6.4982,6.4981 0,3.5895 2.9087,6.5017 6.4982,6.5017 3.5912,0 6.5016,-2.9122 6.5016,-6.5017 z"
       style="fill:#0c479d;fill-opacity:1;fill-rule:nonzero;stroke:none"
       inkscape:connector-curvature="0" />
    <path
       id="path3842"
       d="m -2275.3002,-2928.1111 c -22.0556,-4.8418 -44.8874,-4.9635 -66.9925,-0.3509 -0.6685,0.1397 -1.3582,-0.071 -1.8362,-0.5574 -0.478,-0.4868 -0.6756,-1.1836 -0.5221,-1.8468 1.2611,-5.5175 2.7393,-10.9802 4.4326,-16.3812 0.6615,-2.115 2.4377,-3.6936 4.6143,-4.1028 8.8284,-1.6599 17.7942,-2.4906 26.7759,-2.4818 8.9853,-0.014 17.9493,0.8219 26.7794,2.4818 2.1766,0.4092 3.9529,1.9878 4.6143,4.1028 1.7286,5.5174 3.235,11.1019 4.5139,16.741 0.1517,0.6667 -0.049,1.3652 -0.5311,1.8521 -0.4833,0.4868 -1.1799,0.6914 -1.8485,0.5432 z"
       style="fill:#0c479d;fill-opacity:1;fill-rule:nonzero;stroke:none"
       inkscape:connector-curvature="0" />
    <path
       id="path3844"
       d="m -2265.3271,-2914.3332 c 0,-3.5895 -2.9104,-6.4981 -6.4998,-6.4981 -3.5914,0 -6.5001,2.9086 -6.5001,6.4981 0,3.5895 2.9087,6.5017 6.5001,6.5017 3.5894,0 6.4998,-2.9122 6.4998,-6.5017 z"
       style="fill:#0c479d;fill-opacity:1;fill-rule:nonzero;stroke:none"
       inkscape:connector-curvature="0" />
    <path
       id="path3846"
       d="m -2125.8846,-2936.7576 52.9997,-30.5981 52.9995,30.5981 0,91.9022 -37.9994,0 0,-43.0001 -30.0002,0 0,43.0001 -37.9996,0 0,-91.9022 z"
       style="fill:#0c479d;fill-opacity:1;fill-rule:nonzero;stroke:none"
       inkscape:connector-curvature="0" />
    <path
       id="path3848"
       d="m -2087.885,-2905.8559 0,-30.0003 30.0002,0 0,30.0003 -30.0002,0 z"
       style="fill:#ffffff;fill-rule:nonzero;stroke:none"
       inkscape:connector-curvature="0" />
  </g>
</svg>
