<?xml version="1.0" encoding="UTF-8" standalone="no"?>
<svg
   xmlns:dc="http://purl.org/dc/elements/1.1/"
   xmlns:cc="http://creativecommons.org/ns#"
   xmlns:rdf="http://www.w3.org/1999/02/22-rdf-syntax-ns#"
   xmlns:svg="http://www.w3.org/2000/svg"
   xmlns="http://www.w3.org/2000/svg"
   viewBox="0 0 132.66667 94.866669"
   height="94.866669"
   width="132.66667"
   xml:space="preserve"
   id="svg2"
   version="1.1"><metadata
     id="metadata8"><rdf:RDF><cc:Work
         rdf:about=""><dc:format>image/svg+xml</dc:format><dc:type
           rdf:resource="http://purl.org/dc/dcmitype/StillImage" /></cc:Work></rdf:RDF></metadata><defs
     id="defs6" /><g
     transform="matrix(1.3333333,0,0,-1.3333333,0,94.866667)"
     id="g10"><g
       transform="scale(0.1)"
       id="g12"><path
         id="path14"
         style="fill:#ffffff;fill-opacity:1;fill-rule:nonzero;stroke:none"
         d="m 1.41797,1.41797 h 992.125 v 708.656 H 1.41797 Z" /><path
         id="path16"
         style="fill:none;stroke:#231f20;stroke-width:2.83500004;stroke-linecap:butt;stroke-linejoin:round;stroke-miterlimit:4;stroke-dasharray:none;stroke-opacity:1"
         d="m 1.41797,1.41797 h 992.125 v 708.656 H 1.41797 Z" /><path
         id="path18"
         style="fill:#231f20;fill-opacity:1;fill-rule:nonzero;stroke:none"
         d="m 43.9805,695.953 c -15.6953,0 -28.3711,-12.711 -28.3711,-28.371 V 43.9883 c 0,-15.6914 12.6758,-28.3633 28.3711,-28.3633 H 951.035 v 0 c 15.66,0 28.367,12.6719 28.367,28.3633 V 667.582 c 0,15.66 -12.707,28.371 -28.367,28.371 H 43.9805 v 0" /><path
         id="path20"
         style="fill:#ffffff;fill-opacity:1;fill-rule:nonzero;stroke:none"
         d="m 43.9453,681.801 c -7.8125,0 -14.1523,-6.371 -14.1523,-14.219 V 43.9531 c 0,-7.8086 6.3398,-14.1445 14.1523,-14.1445 H 951.074 v 0 c 7.809,0 14.145,6.3359 14.145,14.1445 V 667.582 c 0,7.848 -6.336,14.219 -14.145,14.219 H 43.9453 v 0" /><path
         id="path22"
         style="fill:#1a67bb;fill-opacity:1;fill-rule:nonzero;stroke:none"
         d="M 821.758,108.105 V 72.2852 H 173.184 V 497.23 h 648.574 l 0.113,-257.867 v 0 c -26.75,27.754 -67.648,36.504 -103.394,22.106 -35.786,-14.403 -59.184,-49.106 -59.184,-87.625 0,-38.555 23.398,-73.223 59.184,-87.6604 35.746,-14.4023 76.531,-5.8672 103.281,21.9214 v 0" /><path
         id="path24"
         style="fill:#ffffff;fill-opacity:1;fill-rule:nonzero;stroke:none"
         d="m 594.023,374.867 c 4.79,0 8.676,-3.887 8.676,-8.676 0,-4.789 -3.886,-8.675 -8.676,-8.675 -4.785,0 -8.675,3.886 -8.675,8.675 0,4.789 3.89,8.676 8.675,8.676 v 0" /><path
         id="path26"
         style="fill:#ffffff;fill-opacity:1;fill-rule:nonzero;stroke:none"
         d="m 419.129,253.391 c 24.539,0 49.309,1.781 54.719,4.953 0,-9.336 -2.844,-26.891 12.929,-21.629 7.403,2.445 4.442,18.187 4.442,21.812 10.332,5.164 7.554,11.692 7.824,23.266 0.453,19.879 -3.715,39.727 -14.02,44.352 v 0 l 0.332,0.117 v 0 c 5.469,0.906 11.153,0.816 15.989,0.453 1.203,-0.09 2.172,0.547 2.293,2.387 v 0 l -0.574,7.461 v 0 c 0,1.511 -1.055,2.027 -2.239,1.933 v 0 l -8.367,0.305 v 0 c -2.867,0.215 -4.863,0.359 -6.676,-1.66 v 0 l -3.898,-7.407 v 0 c -3.383,13.262 -5.258,24.446 -10,37.649 -3.172,8.851 -30.09,10.305 -52.754,10.09 -22.656,0.215 -49.602,-1.239 -52.777,-10.09 -4.743,-13.203 -6.618,-24.387 -10,-37.649 v 0 l -3.895,7.407 v 0 c -1.812,2.019 -3.809,1.875 -6.68,1.66 v 0 l -8.371,-0.305 v 0 c -1.176,0.094 -2.23,-0.422 -2.23,-1.933 v 0 l -0.578,-7.461 v 0 c 0.125,-1.84 1.09,-2.477 2.297,-2.387 4.832,0.363 10.511,0.453 15.98,-0.453 v 0 l 0.332,-0.117 v 0 c -10.297,-4.625 -14.469,-24.473 -14.019,-44.352 0.273,-11.574 -2.504,-18.102 7.828,-23.266 0,-3.625 -2.957,-19.367 4.445,-21.812 15.766,-5.262 12.93,12.293 12.93,21.629 5.402,-3.172 30.207,-4.953 54.738,-4.953 v 0" /><path
         id="path28"
         style="fill:#ffffff;fill-opacity:1;fill-rule:nonzero;stroke:none"
         d="m 273.91,331.703 c 12.817,0 23.223,-10.402 23.223,-23.223 0,-12.812 -10.406,-23.214 -23.223,-23.214 -12.816,0 -23.219,10.402 -23.219,23.214 0,12.821 10.403,23.223 23.219,23.223 v 0" /><path
         id="path30"
         style="fill:#ffffff;fill-opacity:1;fill-rule:nonzero;stroke:none"
         d="m 551.543,424.91 c 5.34,0 9.687,-4.347 9.687,-9.683 0,-5.344 -4.347,-9.692 -9.687,-9.692 -5.336,0 -9.688,4.348 -9.688,9.692 0,5.336 4.352,9.683 9.688,9.683 v 0" /><path
         id="path32"
         style="fill:#ffffff;fill-opacity:1;fill-rule:nonzero;stroke:none"
         d="m 519.324,212.148 c 9.25,0 16.813,-7.562 16.813,-16.812 0,-9.25 -7.563,-16.809 -16.813,-16.809 -9.25,0 -16.816,7.559 -16.816,16.809 0,9.25 7.566,16.812 16.816,16.812 v 0" /><path
         id="path34"
         style="fill:#ffffff;fill-opacity:1;fill-rule:nonzero;stroke:none"
         d="m 239.637,233.316 c -4.75,-8.82 -7.918,-15.988 -13.282,-24.66 -2.988,-6.914 -5.218,-14.578 -8.496,-20.664 -2.121,-4.394 -6.371,-8.496 -11.449,-7.457 -3.203,1.195 -2.625,3.102 -3.492,4.899 1.871,33.914 23.004,64.222 33.625,82.336 5.328,3.277 18.973,14.793 23.941,14.687 6.946,-0.148 13.641,-1.621 20.59,-1.766 v 0 l 11.344,-13.753 10.473,-25.778 v 0 c 0.863,-2.551 3.89,-6.437 6.156,-7.808 5.902,-7.848 21.957,-14.039 29.234,-23.114 5.145,-6.406 -4.355,-12.883 -9.687,-9.754 h -0.071 v 0 c -15.011,5.543 -31.066,12.852 -43.886,23.758 -0.969,0.832 -1.907,1.696 -2.879,2.559 -4.785,-19.188 12.676,-43.703 19.945,-58.395 9.723,-19.656 19.477,-39.347 29.195,-59.004 4.032,-0.433 8.387,-1.367 12.457,-1.367 3.348,-0.508 0.649,-3.094 -0.613,-3.957 -3.887,-2.738 -7.375,-6.0155 -11.625,-8.1757 v 0 l -16.851,-8.5312 v 0 c -10.727,17.6059 -12.383,25.0899 -18.575,37.6559 -10.261,21.746 -20.48,43.453 -30.707,65.2 v 0 l -4.105,0.031 -29.879,-79.344 -4.176,-13.3163 7.668,-7.5235 v 0 c 0.938,-0.9023 2.34,-3.3164 -0.469,-3.4219 v 0 l -4.964,0.3594 v 0 c -6.414,-0.289 -9.329,1.293 -13.938,2.1602 -4.281,1.7265 -9.824,0.9023 -13.965,2.9531 -3.133,1.293 0.758,7.0195 1.871,10.363 0.938,2.809 2.625,5.328 3.563,8.137 9.902,30.172 19.836,60.336 29.738,90.508 3.238,9.863 3.309,21.851 3.309,32.183 v 0" /><path
         id="path36"
         style="fill:#ffffff;fill-opacity:1;fill-rule:nonzero;stroke:none"
         d="m 546.074,163.223 c 0,-9.575 -0.722,-19.512 2.34,-28.657 v 0 l 2.481,-3.277 v 0 c 1.332,-1.762 3.496,-2.23 6.046,-2.371 9.618,0.285 16.524,6.906 25.957,10.074 1.082,0.363 1.227,0.758 3.172,1.227 3.672,-5.762 4.028,-8.75 6.692,-14.438 -0.141,-1.547 -0.5,-3.023 -1.399,-4.422 -0.289,-0.578 -1.66,-0.507 -2.304,0.106 v 0 l -4.289,3.996 v 0 c -0.43,0.434 -1.114,0.684 -1.657,0.285 -7.812,-5.867 -15.586,-11.953 -23.722,-17.387 -10.508,3.493 -20.774,10.911 -29.953,17.028 -19.297,-8.063 -38.407,-21.242 -55.114,-33.7659 v 0 l -4.465,-2.4844 -7.379,7.7383 v 0 c -1.515,1.582 -3.636,4.535 -2.593,6.52 -0.141,1.472 0.832,2.914 3.168,1.976 v 0 l 7.09,-2.844 v 0 c 14.332,12.383 28.765,23.762 44.101,34.739 -0.105,2.414 -0.394,3.562 -0.715,5.507 -1.769,3.567 -2.742,14.868 -2.988,16.743 -6.844,0 -13.574,-3.457 -20.27,-3.457 -9.253,-0.434 -16.418,-6.118 -24.804,-6.481 -2.668,-0.469 -4.824,-0.754 -7.239,-0.894 -3.886,-0.254 -5.472,3.164 -2.625,5.433 2.372,1.91 4.75,3.918 7.665,4.899 7.742,2.586 15.191,5.718 23.113,8.093 16.957,5.508 45.433,10.481 55.871,8.387 5.113,0 9.109,-0.355 15.23,1.59 v 0 l 14.868,17.676 3.601,3.273 h 0.031 v 0 c 7.996,5.039 11.883,-4.285 9.403,-5.793 v 0 L 569.398,171 l -4.32,-4.574 v 0 c -2.629,-2.77 -6.371,-4.067 -10.152,-4.067 -3.055,0 -5.867,0.106 -8.852,0.864 v 0" /><path
         id="path38"
         style="fill:#ffffff;fill-opacity:1;fill-rule:nonzero;stroke:none"
         d="m 550.355,338.941 c 0,-8.605 -0.035,-17.171 -0.035,-25.777 -1.222,-4.176 -5.832,-3.457 -7.382,-0.328 -0.938,5.801 -0.141,19.406 -0.141,26.031 v 0 l 7.558,0.074 v 0" /><path
         id="path40"
         style="fill:#ffffff;fill-opacity:1;fill-rule:nonzero;stroke:none"
         d="m 560.184,338.902 c 0,-10.941 -0.106,-21.925 -0.106,-32.867 -0.113,-2.844 -5.726,-4.39 -7.418,0.149 0,10.902 -0.074,21.777 -0.074,32.683 v 0 l 7.598,0.035 v 0" /><path
         id="path42"
         style="fill:#ffffff;fill-opacity:1;fill-rule:nonzero;stroke:none"
         d="m 604.102,341.027 10.156,-12.203 v 0 c 1.367,0.938 1.547,2.594 2.265,3.992 0.321,1.731 0.29,3.028 -0.648,4.215 -5.723,5.723 -10.402,12.383 -15.621,18.574 -9.867,-4.89 -15.914,2.922 -22.145,10.157 0.18,0.285 1.547,1.941 0.797,3.707 -4.789,10.98 -13.898,40.965 -35.715,29.695 -10.148,-6.371 -8.75,-18.894 -8.75,-29.121 0.036,-1.184 0.614,-1.473 2.09,-2.848 -5.793,-7.269 -8.535,-17.816 -8.535,-26.922 v 0 l 46.984,-0.179 v 0 c 0,13.605 -5.722,27.14 -16.417,35.597 v 0 l 0.074,13.141 v 0 c 0.754,1.516 1.656,0.758 2.265,0.148 5.078,-6.734 7.922,-16.128 11.485,-23.292 0.254,-1.477 -0.574,-2.016 1.515,-4.825 3.094,-6.191 8.852,-10.082 13.246,-15.84 -1.187,-13.359 -3.492,-26.64 -3.492,-40.066 0,-3.961 5.543,-4.609 6.555,-0.758 v 0 l 1.613,19.766 3.926,0.035 v 0 c 0.543,-6.051 1.621,-12.098 1.621,-18.18 0.684,-3.242 5.617,-3.925 6.481,-0.039 v 0.797 c 0,5.828 -1.118,11.551 -1.657,17.348 h 4.5 l -2.593,17.101 v 0" /><path
         id="path44"
         style="fill:#ffffff;fill-opacity:1;fill-rule:nonzero;stroke:none"
         d="m 756.668,416.016 v -93.457 c -42.512,0 -85.027,-0.036 -127.543,-0.141 v 93.449 c -1.766,-1.324 -3.926,-3.383 -6.336,-3.383 -5.113,-0.789 -9.394,3.383 -6.48,9.075 0.214,0.683 1.113,1.476 1.656,1.91 24.945,18.683 49.894,37.398 74.844,56.086 25.019,-18.649 50.004,-37.293 75.023,-55.942 1.188,-0.863 1.91,-2.269 2.41,-3.562 1.621,-7.961 -7.234,-9.113 -10.617,-6.192 -1.008,0.246 -2.234,1.434 -2.957,2.157 v 0" /><path
         id="path46"
         style="fill:#1a67bb;fill-opacity:1;fill-rule:nonzero;stroke:none"
         d="m 419.117,266.23 c -23.543,-0.031 -47.078,1.032 -70.613,3.172 -1.84,0.153 -3.348,1.786 -3.348,3.661 v 2.207 c 0,1.871 1.508,3.23 3.348,3.046 23.535,-2.144 47.105,-3.199 70.641,-3.14 23.535,-0.059 47.07,0.996 70.605,3.14 1.84,0.184 3.355,-1.175 3.355,-3.046 v -2.207 c 0,-1.875 -1.515,-3.508 -3.355,-3.661 -23.535,-2.14 -47.098,-3.203 -70.633,-3.172 v 0" /><path
         id="path48"
         style="fill:#1a67bb;fill-opacity:1;fill-rule:nonzero;stroke:none"
         d="m 419.125,285.082 h -36.586 v 0 c -2.836,0 -4.836,2.086 -3.867,4.02 v 0 l 9.398,19.183 v 0 c 0.571,1.211 2.145,1.992 3.864,1.992 h 54.414 v 0 c 1.722,0 3.297,-0.781 3.867,-1.992 v 0 l 9.394,-19.183 v 0 c 0.965,-1.934 -1.023,-4.02 -3.867,-4.02 h -36.617 v 0" /><path
         id="path50"
         style="fill:#1a67bb;fill-opacity:1;fill-rule:nonzero;stroke:none"
         d="m 478.008,314.805 c 6.074,0 11.023,-4.95 11.023,-11.028 0,-6.074 -4.949,-11.027 -11.023,-11.027 -6.074,0 -11.031,4.953 -11.031,11.027 0,6.078 4.957,11.028 11.031,11.028 v 0" /><path
         id="path52"
         style="fill:#1a67bb;fill-opacity:1;fill-rule:nonzero;stroke:none"
         d="m 360.23,314.805 c -6.074,0 -11.031,-4.95 -11.031,-11.028 0,-6.074 4.957,-11.027 11.031,-11.027 6.067,0 11.024,4.953 11.024,11.027 0,6.078 -4.957,11.028 -11.024,11.028 v 0" /><path
         id="path54"
         style="fill:#1a67bb;fill-opacity:1;fill-rule:nonzero;stroke:none"
         d="m 419.371,330.504 c 20.547,-0.09 38.43,-1.359 55.168,-2.688 -1.629,6.676 -5.801,28.856 -8.367,34.231 -1.328,3.621 -2.266,6.891 -9.395,7.676 -5.316,2.566 -21.031,3.468 -37.406,3.261 -16.375,0.207 -32.57,-0.695 -37.887,-3.261 -7.129,-0.785 -8.066,-4.055 -9.394,-7.676 -2.57,-5.375 -6.738,-27.555 -8.371,-34.231 16.742,1.329 35.109,2.598 55.652,2.688 v 0" /><path
         id="path56"
         style="fill:#1a67bb;fill-opacity:1;fill-rule:nonzero;stroke:none"
         d="m 747.273,334.906 -39.277,0.149 v 35.418 h -30.058 v -35.418 h -39.024 v 87.226 l 53.57,38.875 54.789,-41.758 v -84.492" /><path
         id="path58"
         style="fill:#1a67bb;fill-opacity:1;fill-rule:nonzero;stroke:none"
         d="m 541.715,373.32 c 0,5.039 0,10.078 0,15.118 0.144,1.66 2.664,1.73 2.664,-0.036 0,-4.281 0.035,-8.531 0.035,-12.816 -1.187,-1.008 -1.293,0.074 -2.699,-2.266 v 0" /><path
         id="path60"
         style="fill:#231f20;fill-opacity:1;fill-rule:nonzero;stroke:none"
         d="m 715.125,140.762 h 33.738 v -12.676 h -49.718 v 0 c -0.075,31.144 18.898,41.477 34.593,66.387 8.926,14.183 -20.449,28.257 -20.449,1.113 v 0 l -14.074,-0.035 v 0 c -2.879,44.531 62.715,32.293 48.242,-5.258 -6.59,-17.059 -30.027,-30.348 -32.332,-49.531 v 0" /><path
         id="path62"
         style="fill:#231f20;fill-opacity:1;fill-rule:nonzero;stroke:none"
         d="m 782.953,224.496 c 41.438,0 29.985,-119.988 -10.617,-94.969 -21.496,13.211 -22.5,94.969 10.617,94.969 v 0" /><path
         id="path64"
         style="fill:#ee2c30;fill-opacity:1;fill-rule:nonzero;stroke:none"
         d="m 821.797,298.328 0.035,-58.82 v 0 c -26.75,27.758 -67.644,36.504 -103.394,22.101 -35.782,-14.398 -59.18,-49.105 -59.18,-87.621 0,-38.558 23.398,-73.226 59.18,-87.6599 35.75,-14.3984 76.539,-5.8672 103.285,21.9259 V 72.4336 L 654.938,72.3984 v 0 C 604.102,121.82 597.621,201.199 639.746,258.191 c 42.117,57.024 119.879,74.164 182.051,40.137 v 0" /><path
         id="path66"
         style="fill:#ffffff;fill-opacity:1;fill-rule:nonzero;stroke:none"
         d="m 678.121,384.805 h 29.8438 v 29.918 H 678.121 Z" /><path
         id="path68"
         style="fill:#ffffff;fill-opacity:1;fill-rule:nonzero;stroke:none"
         d="m 783.277,210.422 c 16.703,0 11.625,-85.574 -4.285,-68.727 -8.172,8.641 -10.043,68.727 4.285,68.727 v 0" /><path
         id="path70"
         style="fill:#231f20;fill-opacity:1;fill-rule:nonzero;stroke:none"
         d="m 347.926,546.926 v 13.894 l 39.777,72.653 h -38.519 v 12.632 h 56.593 v -12.921 l -40.64,-73.621 H 406.5 v -12.637 h -58.574" /><path
         id="path72"
         style="fill:#231f20;fill-opacity:1;fill-rule:nonzero;stroke:none"
         d="m 426.266,558.555 c 3.418,-4.246 7.375,-7.383 12.093,-9.508 4.536,-2.231 9.5,-3.234 14.762,-3.234 5.539,0 10.652,1.003 15.371,3.093 4.676,2.125 8.637,5.254 12.059,9.5 3.418,4.145 6.117,9.543 8.101,15.949 1.871,6.372 2.84,14.043 2.84,22.719 v 0 c 0,8.391 -0.969,15.66 -2.84,21.887 -1.984,6.266 -4.683,11.523 -8.101,15.805 -3.422,4.105 -7.383,7.379 -11.918,9.504 -4.719,2.121 -9.684,3.132 -14.938,3.132 -5.547,0 -10.511,-1.011 -15.23,-3.132 -4.68,-2.125 -8.781,-5.254 -12.199,-9.399 -3.426,-4.246 -6.125,-9.644 -7.961,-16.055 -1.977,-6.371 -2.989,-14.074 -2.989,-22.711 0,-8.39 1.012,-15.664 2.989,-21.89 1.836,-6.266 4.535,-11.52 7.961,-15.66 v 0" /><path
         id="path74"
         style="fill:#231f20;fill-opacity:1;fill-rule:nonzero;stroke:none"
         d="m 507.586,546.926 h 14.219 v 79.308 h 0.289 l 35.097,-79.308 h 18.614 v 99.179 h -14.219 v -79.882 h -0.289 l -35.102,79.882 h -18.609 v -99.179" /><path
         id="path76"
         style="fill:#231f20;fill-opacity:1;fill-rule:nonzero;stroke:none"
         d="m 596.504,546.926 h 50.726 v 12.637 h -35.39 v 32.253 h 32.148 v 12.672 H 611.84 v 28.985 h 33.844 v 12.632 h -49.18 v -99.179" /><path
         id="path78"
         style="fill:#ffffff;fill-opacity:1;fill-rule:nonzero;stroke:none"
         d="m 436.918,568.098 v 0 c 3.707,-6.844 9.105,-10.227 16.203,-10.227 2.988,0 5.977,0.684 8.672,2.125 2.699,1.258 5.109,3.524 7.234,6.66 2.016,2.989 3.567,7.121 4.864,12.094 1.113,4.965 1.691,11.09 1.691,18.324 v 0 c 0,11.809 -1.836,21.203 -5.543,28.008 -3.851,6.844 -9.254,10.227 -16.344,10.227 -2.988,0 -5.976,-0.684 -8.675,-1.985 -2.7,-1.398 -5.114,-3.707 -7.094,-6.691 -2.16,-3.098 -3.707,-7.238 -4.86,-12.207 -1.261,-4.969 -1.836,-11.086 -1.836,-18.321 0,-11.812 1.836,-21.207 5.688,-28.007" /></g></g></svg>