<?xml version="1.0" encoding="UTF-8" standalone="no"?>
<!-- Created with Inkscape (http://www.inkscape.org/) -->

<svg
   xmlns:dc="http://purl.org/dc/elements/1.1/"
   xmlns:cc="http://creativecommons.org/ns#"
   xmlns:rdf="http://www.w3.org/1999/02/22-rdf-syntax-ns#"
   xmlns:svg="http://www.w3.org/2000/svg"
   xmlns="http://www.w3.org/2000/svg"
   version="1.1"
   width="476.9375"
   height="600"
   id="svg2"
   xml:space="preserve"><metadata
     id="metadata4"><rdf:RDF><cc:Work
         rdf:about=""><dc:format>image/svg+xml</dc:format><dc:type
           rdf:resource="http://purl.org/dc/dcmitype/StillImage" /><dc:title></dc:title></cc:Work></rdf:RDF></metadata><defs
     id="defs6" /><g
     transform="matrix(4.1339112,0,0,-4.1339112,238.46736,1.16422)"
     id="g10"><path
       d="m 0,0 -51.03,0 c -3.52,0 -6.372,-2.853 -6.372,-6.372 v -131.83 c 0,-3.518 2.852,-6.372 6.372,-6.372 H 51.03 c 3.52,0 6.372,2.854 6.372,6.372 v 131.83 c -10e-4,3.517 -2.853,6.37 -6.373,6.37 H 0"
       id="path12"
       style="fill:#ffffff;fill-rule:evenodd" /></g><path
     d="m 238.46736,1.16009 -210.953489,0 c -14.551368,0 -26.3412822,11.79405 -26.3412822,26.34128 v 544.97351 c 0,14.5431 11.7899142,26.34128 26.3412822,26.34128 H 449.42084 c 14.55137,0 26.34129,-11.79818 26.34129,-26.34128 V 27.50137 c 0,-14.54723 -11.78992,-26.34128 -26.34129,-26.34128 H 238.4715 z"
     id="path14"
     style="fill:none;stroke:#0079c1;stroke-width:2.34392738;stroke-linecap:butt;stroke-linejoin:miter;stroke-miterlimit:10;stroke-opacity:1;stroke-dasharray:none" /><path
     d="m 238.54177,480.21425 -210.949355,0 c -7.275683,0 -13.174775,5.89909 -13.174775,13.17064 v 79.02385 c 0,7.27568 5.899092,13.17477 13.174775,13.17477 H 449.49939 c 7.27568,0 13.16651,-5.89909 13.16651,-13.17477 v -79.02385 c 0,-7.27155 -5.89083,-13.17064 -13.16651,-13.17064 H 238.5459"
     id="path16"
     style="fill:#0079c1;fill-opacity:1;fill-rule:evenodd" /><path
     d="m 238.54177,14.3886 -210.949355,0 c -7.275683,0 -13.174775,5.89496 -13.174775,13.17065 v 426.20624 c 0,7.27155 5.899092,13.1665 13.174775,13.1665 H 449.49939 c 7.27568,0 13.16651,-5.89495 13.16651,-13.1665 V 27.55925 c 0,-7.27156 -5.89083,-13.17065 -13.16651,-13.17065 H 238.5459"
     id="path18"
     style="fill:#0079c1;fill-opacity:1;fill-rule:evenodd" /><g
     transform="matrix(4.1339112,0,0,-4.1339112,352.83614,40.74642)"
     id="g20"><path
       d="m 0,0 -21.276,-9.108 0,-1.512 3.06,0 0,-31.896 36.432,0 0,31.896 3.023,0 0,1.512 -6.12,2.628 0.036,6.48 -4.536,0 0,-4.536 L 0,0 z m -6.084,-13.68 -9.1084,0 0,-7.56 9.1084,0 0,7.56 z m -9.108,0 z m 27.395,0 -12.203,0 0,-7.56 12.203,0 0,7.56 z m -22.822,4.536 z m 12.203,-13.644 -12.203,0 0,-7.5957 12.203,0 0,7.5957 z m -12.203,0 z m -7.597,0 -6.084,0 0,-13.68 6.084,0 0,13.68 z"
       id="path22"
       style="fill:#ffffff;fill-rule:evenodd" /></g><g
     transform="matrix(4.1339112,0,0,-4.1339112,140.7665,189.56722)"
     id="g24"><path
       d="m 0,0 0,0.756 12.672,0 0,-0.756 -3.996,-0.216 -4.716,0 L 0,0 z m 6.336,2.7 6.372,0 0,-0.972 -12.744,0 0,0.972 6.372,0 z M -3.96,4.716 -3.96,3.96 H 8.712 V 4.716 L 4.716,4.968 H 0 L -3.96,4.716 z m -2.7,5.688 0.395,2.016 c 0.397,2.088 2.628,2.376 4.897,2.376 H 6.12 c 2.232,0 4.464,-0.288 4.896,-2.376 l 0.36,-2.016 C 11.556,9.216 10.907,8.784 9.611,8.856 L 2.376,9.18 -4.897,8.856 C -6.192,8.784 -6.841,9.216 -6.66,10.404 z M -8.677,4.86 c 0,-0.936 0.792,-1.728 1.729,-1.728 0.971,0 1.727,0.792 1.727,1.728 0,0.972 -0.756,1.764 -1.727,1.764 -0.937,0 -1.729,-0.792 -1.729,-1.764 z m 18.613,0 c 0,-0.936 0.755,-1.728 1.728,-1.728 0.936,0 1.728,0.792 1.728,1.728 0,0.972 -0.792,1.764 -1.728,1.764 -0.973,0 -1.728,-0.792 -1.728,-1.764 z m -18.288,2.952 1.295,6.696 c 0.145,0.756 1.009,2.124 2.809,2.16 H 9 c 1.764,-0.036 2.664,-1.404 2.771,-2.16 L 13.103,7.812 C 13.932,7.668 14.796,6.84 14.796,5.94 V 0.396 c 0,-0.792 -0.721,-1.512 -1.044,-1.764 V -5.4 c -0.576,-0.54 -1.116,-0.9 -1.836,-0.9 -0.721,0 -1.513,0.396 -1.944,0.9 v 3.888 l -3.42,-0.252 h -8.353 l -3.455,0.252 V -5.4 h -10e-4 c -0.432,-0.504 -1.224,-0.9 -1.943,-0.9 -0.72,0 -1.26,0.36 -1.8,0.9 v 4.032 c -0.36,0.252 -1.08,0.972 -1.08,1.764 V 5.94 c 0,0.9 0.899,1.728 1.728,1.872"
       id="path26"
       style="fill:#ffffff;fill-rule:evenodd" /></g><g
     transform="matrix(4.1339112,0,0,-4.1339112,120.08041,326.48236)"
     id="g28"><path
       d="m 0,0 c 0.611,-1.477 2.195,-3.061 3.672,-4.284 1.512,-1.225 3.348,-2.017 3.852,-2.124 0.503,-0.145 2.268,-0.576 2.448,-0.576 0.216,0 0.504,-0.252 0.719,-0.252 0.18,0 0.613,0.252 0.72,0.828 0.145,0.54 0.576,2.195 -0.252,2.303 -0.828,0.144 -0.899,-0.179 -0.899,-0.179 0,0 -1.044,0.252 -1.225,0.468 -0.216,0.215 -1.872,1.007 -2.34,1.547 C 6.228,-1.692 5.111,-0.54 4.571,0.359 3.96,1.439 3.42,3.168 3.06,3.852 2.735,4.535 1.907,5.976 1.367,6.443 0.792,6.947 -0.469,8.1 -0.54,8.172 -0.612,8.243 -0.612,8.855 -0.469,8.928 -0.36,9 0.936,9.684 1.224,10.296 c 0.252,0.611 0.612,0.899 0.612,2.052 0,1.152 -1.08,3.635 -3.708,3.635 -2.593,0 -3.492,-1.979 -3.492,-3.42 0,-2.015 1.332,-2.484 0.972,-2.952 -0.216,-0.288 -0.9,-0.288 -1.692,-0.359 -0.828,-0.036 -2.7,-0.792 -3.637,-1.692 -0.971,-0.901 -2.735,-2.953 -3.311,-4.033 -0.54,-1.116 -1.548,-3.132 -1.981,-4.607 -0.395,-1.44 -0.54,-2.341 -0.54,-2.881 0,-0.539 -0.143,-1.151 -0.143,-1.151 0,0 -0.756,-0.504 -0.756,-0.972 0,-0.469 0.828,-1.225 1.26,-1.44 0.395,-0.216 1.332,-0.541 1.62,-0.541 0.288,0 1.223,0.397 1.223,1.045 0,0.612 -0.395,1.547 -0.395,2.087 0,0.54 0.611,2.844 0.899,3.313 0.252,0.468 1.369,2.195 1.62,2.447 0.288,0.288 0.72,0.612 0.72,0.612 0,-1.908 -0.252,-6.551 -0.647,-7.847 -0.397,-1.296 -2.269,-5.004 -3.025,-6.265 -0.899,-1.475 -2.952,-4.571 -4.031,-5.832 -1.08,-1.224 -2.629,-2.592 -2.881,-2.771 -0.252,-0.18 -0.179,-0.504 0,-0.828 0.181,-0.325 2.124,-4.176 2.197,-4.176 0.108,0 3.06,-0.576 3.24,-0.576 0.179,0 0.324,0.467 0,0.648 -0.324,0.18 -0.685,0.252 -0.685,0.252 -0.287,1.151 -0.575,2.34 -0.899,3.527 0,0 2.483,2.305 2.988,2.88 0.468,0.576 3.096,3.204 3.6,3.925 0.467,0.756 2.124,3.059 2.376,3.636 0.252,0.576 1.332,2.376 1.332,2.376 0,0 1.152,-0.972 1.548,-1.548 0.396,-0.576 2.232,-3.889 2.627,-4.609 0.397,-0.719 1.981,-4.355 2.233,-5.183 0.216,-0.792 2.807,-7.704 2.807,-7.704 0,0 6.048,2.592 6.3,2.771 0.252,0.181 0.576,0.828 0,0.828 -0.575,0 -4.283,0.504 -4.283,0.504 0,0 -0.217,2.053 -0.324,2.628 -0.072,0.576 -0.973,4.681 -1.296,5.401 -0.324,0.719 -1.908,4.356 -2.232,4.788 -0.361,0.395 -1.476,3.528 -1.728,4.248 -0.217,0.756 -0.649,2.736 -0.649,3.563 0,0.792 0.397,2.952 0.937,3.925"
       id="path30"
       style="fill:#ffffff;fill-rule:evenodd" /></g><g
     transform="matrix(4.1339112,0,0,-4.1339112,236.30945,390.17766)"
     id="g32"><path
       d="m 0,0 c 0.433,-0.252 1.225,-0.54 1.404,-0.54 0.18,0 0.072,-0.181 0.036,-0.324 -0.036,-0.144 -2.376,-9.037 -2.448,-9.361 -0.107,-0.323 -0.36,-0.72 -0.9,-0.756 -0.504,-0.072 -1.871,-0.215 -2.34,-0.288 -0.468,-0.107 -0.72,-0.143 -0.684,-0.468 0,-0.36 0.361,-0.36 0.54,-0.431 0.18,-0.036 3.205,-0.828 3.564,-0.901 0.36,-0.107 0.828,-0.179 1.009,-0.179 0.179,0 0.792,0.216 0.827,0.647 0.072,0.397 0.217,1.332 0.36,1.729 0.145,0.431 0.756,1.727 1.153,2.267 0.359,0.54 1.043,1.8 1.223,2.449 0.216,0.648 0.612,2.16 0.612,3.456 0,0.576 0,1.404 0.792,1.404 0.792,0 1.117,-0.181 1.944,-0.181 0.828,0 1.116,0.073 1.476,0.073 0.361,0 0.936,-0.216 1.188,-0.54 0.288,-0.288 2.16,-2.052 2.52,-2.412 0.361,-0.396 2.124,-1.909 2.628,-2.304 0.504,-0.432 1.548,-1.153 1.872,-1.405 0.324,-0.215 0.432,-0.431 0.36,-0.828 -0.108,-0.359 -0.577,-2.771 -0.648,-3.168 -0.144,-0.611 0.036,-0.719 0.468,-0.719 0.396,0 1.296,0.683 1.656,0.719 l 4.248,-0.971 c 0.468,4.068 2.376,9.935 3.672,12.095 0.612,-0.755 2.376,-2.916 3.096,-3.456 0.72,-0.54 1.44,-0.755 2.052,-0.935 0.648,-0.18 3.996,-1.368 4.32,-1.441 0.324,-0.107 0.504,-0.323 0.576,-0.647 0.036,-0.288 0.216,-1.908 0.216,-2.233 0,-0.288 0.036,-0.395 0.432,-0.431 0.432,-0.073 0.504,0.431 0.504,0.431 l 1.08,5.113 -4.896,2.052 c -1.368,0.612 -2.628,1.872 -3.384,3.564 -0.72,1.728 -1.368,3.779 -1.476,5.903 1.044,-0.431 2.16,-1.332 2.664,-2.015 0.54,-0.684 1.26,-1.981 1.26,-2.664 0,-0.901 -0.612,-0.972 -0.612,-1.728 0,-0.792 0.72,-1.513 1.62,-1.513 0.9,0 1.26,0.504 1.26,1.189 0,0.647 -0.36,0.432 -0.36,1.08 0,0.647 0.072,1.187 0.072,1.512 0,0.324 -0.18,2.303 -0.612,3.24 -0.396,0.935 -1.692,2.52 -2.124,3.06 -0.432,0.54 -1.476,1.332 -2.736,1.728 -1.26,0.359 -2.34,0.359 -2.88,0.359 -0.396,0 -1.188,0.109 -0.72,0.685 0.432,0.576 1.08,1.332 1.08,2.735 0,1.405 -0.936,3.097 -2.952,3.097 -2.016,0 -2.988,-1.728 -2.988,-3.06 0,-1.333 1.152,-2.808 1.692,-3.096 0.54,-0.288 0.288,-0.684 0.108,-0.864 C 22.68,10.584 20.7,7.992 20.412,7.487 20.124,6.983 18.792,4.895 18.648,4.536 18.54,4.14 18.216,3.888 17.604,4.14 c -0.612,0.252 -1.584,0.755 -1.8,0.864 -0.252,0.143 -0.18,0.288 -0.108,0.576 0.108,0.288 1.548,4.464 1.692,4.752 0.108,0.288 0.108,0.468 0.108,0.54 0,0.071 -0.036,0.252 -0.18,0.432 -0.18,0.215 -1.656,1.728 -1.98,2.051 -0.792,0.649 -3.456,2.701 -3.924,2.953 -0.504,0.252 -0.359,0.179 -0.756,0.179 -0.395,0 -1.223,-0.143 -1.475,-0.143 -0.288,0 -0.54,0.431 -0.109,0.54 0.468,0.143 1.368,0.395 1.656,1.008 0.252,0.612 0.396,1.656 0.396,2.087 0,0.433 -0.216,3.96 -3.312,3.96 C 4.716,23.939 4.5,20.592 4.5,19.908 4.5,19.26 4.716,18.072 5.04,17.676 5.364,17.315 5.688,17.063 5.832,16.992 5.94,16.92 6.156,16.452 5.761,16.38 5.364,16.308 4.177,16.02 3.637,15.443 2.88,14.651 1.944,12.852 1.476,11.735 0.973,10.62 0,8.676 -1.332,7.416 -2.664,6.191 -4.212,5.111 -4.5,5.004 -4.788,4.859 -5.111,4.824 -5.328,4.716 -5.544,4.572 -5.832,4.176 -5.832,3.636 c 0,-0.576 0.504,-1.189 1.188,-1.189 0.72,0 0.9,0.433 1.224,0.54 0.288,0.145 0.9,0.253 1.225,0.505 C -1.836,3.779 0.288,5.04 1.296,6.12 2.268,7.164 3.708,9.036 3.96,10.08 3.708,9.036 2.736,5.796 2.592,5.436 2.412,5.04 2.017,3.852 1.62,3.132 1.225,2.412 0,0 -0.036,0 H 0 z m 10.872,12.24 c 0,-2.593 0.54,-5.94 0.937,-6.948 0.359,-1.044 1.943,-4.5 1.943,-4.5 0,0 -1.44,-1.116 -1.44,-1.044 1.117,-0.504 2.664,-1.548 3.312,-2.196 0.648,-0.649 1.476,-1.728 1.872,-2.376 0.396,-0.649 1.548,-2.197 2.088,-2.449 0.504,-0.252 0.648,-0.576 0.432,-1.044 -0.18,-0.431 -0.468,-1.547 -0.576,-1.799 -0.216,-0.361 0.468,-0.972 0.72,-0.252 0.252,0.719 0.324,0.792 0.36,1.152 0.072,0.395 0.396,2.951 0.539,3.491 0.145,0.504 0.649,3.204 0.829,3.853 0.216,0.647 0.864,2.844 0.972,3.563 0.144,0.685 0.216,1.981 0.216,2.305 0,0.323 0,1.044 -0.072,1.044 -0.072,0 -1.8,-2.521 -2.34,-2.916 C 20.16,1.728 19.296,1.548 18.648,1.8 18,2.052 15.12,2.952 14.472,3.096 c -0.648,0.108 -1.295,0.9 -1.44,1.404 -0.143,0.54 0.072,1.116 0.18,1.476 0.144,0.396 1.044,2.664 1.116,3.168 0.036,0.503 0.432,0.936 -0.072,1.295 -0.432,0.325 -3.384,1.801 -3.384,1.801"
       id="path34"
       style="fill:#ffffff;fill-rule:evenodd" /></g><g
     transform="matrix(4.1339112,0,0,-4.1339112,89.274506,524.86049)"
     id="g36"><path
       d="m 0,0 -5.328,0 0,4.643 -2.052,0 0,-11.916 2.052,0 0,5.437 5.328,0 0,-5.437 2.052,0 0,11.916 H 0 V 0"
       id="path38"
       style="fill:#ffffff;fill-rule:evenodd" /></g><g
     transform="matrix(4.1339112,0,0,-4.1339112,178.26934,523.2276)"
     id="g40"><path
       d="m 0,0 c 0.217,0.181 0.864,1.116 2.521,1.116 1.872,0 2.916,-1.439 2.916,-2.843 V -7.668 H 3.492 v 5.616 c 0,0.72 -0.54,1.369 -1.332,1.369 -0.792,0 -1.548,-0.685 -1.548,-1.476 v -5.509 h -2.015 v 5.544 c 0,0.901 -0.649,1.441 -1.332,1.441 -0.649,0 -1.513,-0.54 -1.513,-1.441 v -5.544 h -2.016 v 8.496 h 1.909 V 0.181 c 0.215,0.18 0.971,0.972 2.196,0.972 1.151,0 1.8,-0.72 2.159,-1.153"
       id="path42"
       style="fill:#ffffff;fill-rule:evenodd" /></g><g
     transform="matrix(4.1339112,0,0,-4.1339112,235.26771,545.25307)"
     id="g44"><path
       d="M 0,0 1.225,-1.367 C 0.721,-1.8 -0.288,-2.628 -2.412,-2.628 c -2.124,0 -4.031,1.549 -4.031,4.536 0,2.952 1.907,4.573 4.031,4.573 2.124,0 3.996,-1.873 3.996,-4.248 V 1.261 h -6.012 c 0,-1.189 1.044,-2.053 2.16,-2.053 1.117,0 1.8,0.397 2.268,0.792 z m -0.468,2.7 -3.924,0 c 0,1.008 0.72,2.017 1.98,2.017 1.225,0 1.944,-1.08 1.944,-2.017"
       id="path46"
       style="fill:#ffffff;fill-rule:evenodd" /></g><g
     transform="matrix(4.1339112,0,0,-4.1339112,126.92617,556.26168)"
     id="g48"><path
       d="m 0,0 c 2.484,0 4.212,2.159 4.212,4.644 0,2.627 -1.943,4.5 -4.212,4.5 -2.304,0 -4.248,-1.873 -4.248,-4.5 C -4.248,2.159 -2.483,0 0,0 z m 0,1.836 c 1.477,0 2.16,1.439 2.16,2.771 0,1.441 -0.792,2.737 -2.16,2.737 -1.403,0 -2.195,-1.296 -2.195,-2.737 0,-1.332 0.683,-2.771 2.195,-2.771"
       id="path50"
       style="fill:#ffffff;fill-rule:evenodd" /></g><g
     transform="matrix(4.1339112,0,0,-4.1339112,418.31729,545.25307)"
     id="g52"><path
       d="m 0,0 1.224,-1.367 c -0.468,-0.433 -1.476,-1.261 -3.6,-1.261 -2.16,0 -4.032,1.549 -4.032,4.536 0,2.952 1.908,4.573 4.032,4.573 2.124,0 3.996,-1.873 3.996,-4.248 V 1.261 h -6.049 c 0,-1.189 1.08,-2.053 2.197,-2.053 1.116,0 1.799,0.397 2.232,0.792 z m -0.433,2.7 -3.924,0 c 0,1.008 0.72,2.017 1.945,2.017 1.26,0 1.979,-1.08 1.979,-2.017"
       id="path54"
       style="fill:#ffffff;fill-rule:evenodd" /></g><g
     transform="matrix(4.1339112,0,0,-4.1339112,383.78674,530.21804)"
     id="g56"><path
       d="m 0,0 0,-5.977 -1.979,0 0,5.796 c 0,0.721 -0.721,1.116 -1.369,1.116 -0.683,0 -1.908,-0.504 -1.908,-1.799 V -5.977 H -7.2 v 8.496 h 1.944 V 2.052 c 0,0 0.937,0.719 2.233,0.719 C -1.439,2.771 0,1.691 0,0"
       id="path58"
       style="fill:#ffffff;fill-rule:evenodd" /></g><g
     transform="matrix(4.1339112,0,0,-4.1339112,328.28071,556.26168)"
     id="g60"><path
       d="m 0,0 c 2.484,0 4.212,2.159 4.212,4.644 0,2.627 -1.944,4.5 -4.212,4.5 -2.304,0 -4.248,-1.873 -4.248,-4.5 C -4.248,2.159 -2.484,0 0,0 z m 0,1.836 c 1.512,0 2.16,1.439 2.16,2.771 0,1.441 -0.792,2.737 -2.16,2.737 -1.404,0 -2.196,-1.296 -2.196,-2.737 0,-1.332 0.684,-2.771 2.196,-2.771"
       id="path62"
       style="fill:#ffffff;fill-rule:evenodd" /></g><g
     transform="matrix(4.1339112,0,0,-4.1339112,302.97704,505.66674)"
     id="g64"><path
       d="m 0,0 0,-1.836 -5.651,-8.244 5.651,0 0,-1.836 -8.1,0 0,1.836 5.617,8.244 -5.437,0 V 0 H 0"
       id="path66"
       style="fill:#ffffff;fill-rule:evenodd" /></g></svg>